<?xml version="1.0" encoding="iso-8859-1"?>
<!-- Generator: Adobe Illustrator 19.0.0, SVG Export Plug-In . SVG Version: 6.00 Build 0)  -->
<svg version="1.1" id="Capa_1" xmlns="http://www.w3.org/2000/svg" xmlns:xlink="http://www.w3.org/1999/xlink" x="0px" y="0px"
	 viewBox="0 0 489.53 489.53" style="enable-background:new 0 0 489.53 489.53;" xml:space="preserve">
<g>
	<g>
		<path d="M485.325,301.157c-5.4-24.5-39.3-141.3-24.1-225h-159.3v99.9c0,12.4-5.4,24.1-15.2,31.9c-1.9,1.6-177.8,135.1-241.3,114.6
			c-31.8-9.3-42.4,0.4-44.7,8.5c-1.2,4.3-0.8,8.5,0.4,12.8c21.3,48.3,33.9,82.3,260.3,64.9c15.9-1.9,51.1-10.1,118.9,3.1
			c68.9-1.8,92.6-15.2,102.2-36.5C491.925,352.457,490.825,325.957,485.325,301.157z M417.325,298.357
			c-23.4,23.3-57.4,17.8-81.6,3.9c-5.1-2.3-7-8.5-4.3-13.2c2.3-5.1,8.5-7,13.2-4.3c25.1,18.2,52.1,7,57.9,0.8
			c17.9-21.9,8.7-51.9,0-58.7c-4.3-3.4-3.9-10.1,0-14s10.1-3.9,14,0c8.2,8.2,14,19,15.5,30.3
			C434.625,272.457,423.625,291.757,417.325,298.357z"/>
	</g>
</g>
<g>
</g>
<g>
</g>
<g>
</g>
<g>
</g>
<g>
</g>
<g>
</g>
<g>
</g>
<g>
</g>
<g>
</g>
<g>
</g>
<g>
</g>
<g>
</g>
<g>
</g>
<g>
</g>
<g>
</g>
</svg>
