<svg xmlns="http://www.w3.org/2000/svg" viewBox="0 0 622.4355 1126.81237"><defs><style>.ae4d31b4-6b28-4c7c-a28d-df0e7474a313{fill:#f6b7b7;}.e9c4f26e-862a-4152-9ed5-b3eb8f389144{fill:#d2aa67;}.b27631d8-9c30-46d9-8cbc-b446c5ba7a53{fill:#88522c;}.fafb574c-6cae-42f9-9a9f-bf6491502265{fill:#754625;}.a777986e-356a-45ee-8a0c-98e6b348a5c4{fill:#633a1e;}.e94831a5-37a0-4117-84ae-262934aa7025{fill:#5b636b;}.a4417293-0e83-4bd6-be47-142361963a8f,.ad47b4ab-e39c-4220-aae6-5fe320731e66,.bd4ca6a9-c7fa-46b5-ac13-0c2a78865efd,.e94831a5-37a0-4117-84ae-262934aa7025{stroke:#000;stroke-miterlimit:10;stroke-width:5px;}.ad47b4ab-e39c-4220-aae6-5fe320731e66,.f33940cb-4465-43d0-9ebe-84348bfd2a2f{fill:#333;}.a4417293-0e83-4bd6-be47-142361963a8f{fill:#d0d0d0;}.bd4ca6a9-c7fa-46b5-ac13-0c2a78865efd,.f38b16d5-ee15-46fe-a8b7-d0275a2dc5a8{fill:#5daeb3;}.b7c61d8b-d6ad-457d-9b10-09509b2a8c27{fill:#cbf3f0;}.a45313de-326d-48cd-9cee-a4bb43d04f76{fill:#e5e5e5;}.af2cce06-f701-4347-86f4-8213effae522{fill:#5c6670;}.f12fb9c2-532a-4634-8d98-4f236f4e70c6{fill:#333e48;}.e3be0df1-abc6-4b42-81b0-235c74c8fbcc{fill:#1e252b;}.b5526998-59ef-4199-9f4b-ec717973dab9{fill:#fff;}.b9243b95-422a-45b2-bf88-42f4e9682610{fill:#ff6d68;}.a80c4e4a-c165-4259-823e-094a67bac091{fill:#5e96dc;}.e045e2fe-26d1-4a6e-9f53-e0aebefcb9c3{fill:#ffc843;}.a8cdb687-e849-4874-9277-c52cc2f1b752{fill:#0071ce;}.f992a612-1aa7-447b-8d0a-fa21f54ce279{fill:#bf534f;}.b5b9ae42-5397-4cd0-ac42-f8f8326a941c{fill:#e0b03b;}</style></defs><title>podobear</title><g id="b3b31ff6-c4c7-459d-9416-50eec815d764" data-name="LE PODOBEAR"><g id="ebbf218a-6ac5-4033-b85b-71ae4ccabb1f" data-name="layer1"><g id="ebb28613-902b-4c18-9968-dfb82b8e9780" data-name="g2830"><rect class="ae4d31b4-6b28-4c7c-a28d-df0e7474a313" x="307.35608" y="343.50593" width="92.14035" height="87.09259"/><path id="fafb2ef3-5de2-4bec-aa31-f9aa521bcf1a" data-name="path2840" class="e9c4f26e-862a-4152-9ed5-b3eb8f389144" d="M374.40426,1047.6383c8.9248-25.362,15.07627-50.34027,21.26026-63.14325,7.01-14.55,12.33-28.86,12.33-33.2,0-2.13581-1.52289-3.93793-7.35489-8.70337-7.89679-6.4527-21.139-20.11-30.001-30.942-7.01709-8.577-11.744-16.408-22.34-37.011-4.7142-9.1662-9.69738-18.353-11.074-20.416l-2.50269-3.75h-14.895c-11.036,0-14.999.32385-15.296,1.25-.22009.6875-1.125,3.85962-2.0108,7.04907-1.391,5.00843-2.66461,6.84918-9.33981,13.5-4.251,4.23548-13.17,14.901-19.819,23.701-6.6494,8.8-18.053,22.525-25.342,30.5-7.28869,7.975-15.229,17.262-17.646,20.637-7.80451,10.901-19.52,39.362-22.473,54.598a154.15172,154.15172,0,0,1-3.905,15.76,40.23325,40.23325,0,0,0-2.0018,10.368,48.5186,48.5186,0,0,1-2.1138,11.27c-1.6814,5.44391-2.08,9.12829-1.9485,18.014.18808,12.71-.87331,16.438-5.8785,20.65-4.15289,3.49438-7.17829,3.41571-11.406-.29669-1.8792-1.65-4.03391-3-4.788-3s-2.6454,1.35-4.2028,3c-4.3485,4.60718-7.3924,4.06982-14.566-2.57147-6.5784-6.09052-7.02121-6.11652-11.561-.67853-1.6318,1.95477-3.6385,3.25-5.0353,3.25-2.3912,0-6.4401-4.0268-8.9186-8.86988-1.9173-3.74627-3.6243-16.257-4.5887-33.63-.458-8.25-1.33361-23.637-1.9459-34.194-1.032-17.793-.96348-20.072.93788-31.216,3.9245-23.002,7.8423-40.763,12.491-56.627,3.8126-13.011,4.7203-17.627,4.9079-24.963.19139-7.48139.91838-11.061,4.30841-21.215l4.0782-12.215-1.4453-6.78479c-4.2939-20.157-5.4472-32.634-5.9422-64.285-.271-17.325-.70152-32.512-.9568-33.75a2.503,2.503,0,0,0-2.6951-2.2594c-7.58351-.03192-24.963-16.703-33.487-32.123-8.0048-14.48-12.051-25.364-13.219-35.56-2.2531-19.665-.76264-54.247,3.03019-70.307,3.56131-15.081,12.244-39.16,18.931-52.5,12.204-24.349,18.395-33.651,31.384-47.157l11.87-12.343h-4.7261c-3.7428,0-5.5142.62415-8.5139,3-2.5813,2.0444-4.9061,3-7.2988,3-3.4636,0-3.5054-.05051-3.0991-3.75,3.3423-30.436,5.5164-37.725,14.071-47.178l5.49461-6.07181-4.3339.02372a33.59807,33.59807,0,0,0-10.334,2.56649c-16.429,6.9625-20.578,7.693-30.696,5.40421l-5.6961-1.28851,8.5514-9.10291a215.42118,215.42118,0,0,0,17.606-22.603c4.9799-7.425,12.069-17.775,15.755-23,8.9256-12.655,12.99-20.315,17.775-33.5,5.59191-15.408,7.7721-23.754,10.711-41,5.9276-34.788,16.014-63.971,31.449-90.988l7.19839-12.601-3.65581-4.0465c-5.28-5.88-13.04-18.132-15.33-24.24-2.78-7.439-4.13-18.581-4.13-34.131,0-29.876,8.5594-49.197,28.295-63.87,26.314-19.563,55.827-24.919,90.705-16.46,18.148,4.4012,27.84,10.979,39.266,26.648,8.0633,11.057,10.075,14.406,12.727,21.189a37.723,37.723,0,0,0,2.8804,6.2515c.40149.41332,8.58179-.48064,18.178-1.9866,16.005-2.5116,19.806-2.7382,45.949-2.7391,29.91-.001,33.845.35047,61.217,5.4686,11.686,2.1851,16.556,3.6258,23.647,6.9955l8.9299,4.2437,13.853-9.7201c16.02-11.252,21.11-13.988,35.41-19.052,13.06-4.6265,24.61-5.4771,41.93-3.087,12.673,1.7488,19.677,4.6757,31.724,13.257,6.78113,4.8304,10.123,9.1101,15.561,19.929,6.02063,11.978,7.03442,16.984,6.4552,31.874-.827,21.259-3.63648,27.588-23.878,53.793-6.48883,8.4006-11.607,15.724-11.374,16.274,12.235,28.845,14.95,42.942,18.01,93.5,3.18482,52.629,7.11982,73.442,18.062,95.531,6.28088,12.68,12.251,20.048,20,24.682,2.99212,1.7897,5.44018,3.82471,5.44018,4.5224s-2.74951,3.29251-6.11,5.76639c-5.55652,4.09039-6.62091,4.49579-11.75,4.47409-6.0268-.02551-9.42389-.74143-18.14-3.823a84.15182,84.15182,0,0,0-8.5-2.55469l-3-.61016-3.77832,11.756c-2.07812,6.4657-3.76562,12.262-3.75,12.881.01563.61874,8.58722,9.12079,19.048,18.894,31.787,29.696,44.698,47.896,54.024,76.155l4.33112,13.123-2.16083,8.85168c-2.71167,11.109-10.165,26.293-18.333,37.352-7.91772,10.719-27.647,30.626-34.881,35.195-11.574,7.31018-34.806,15.837-48.243,17.706-10.924,1.51929-17.98.082-25.428-5.17962-6.70343-4.73578-10.153-12.351-11.514-25.417-1.4104-13.538-.69354-18.322,3.95441-26.389,4.37927-7.60053,19.186-22.483,30.551-30.707l7.82049-5.6594-8.09271-1.15631c-8.99768-1.28561-11.571-2.67261-22.048-11.882-8.43073-7.41079-17.381-13.511-19.824-13.511-1.793,0-1.9848,1.0751-2.6319,14.75-2.36218,49.925-11.99,86.172-35.213,132.57q-17.52451,35.016-29.379,53.177c-8.75509,13.421-9.51388,15.057-10.862,23.428-.74789,4.64411-.573,7.67682.82077,14.237.97413,4.5846,4.0767,19.136,6.89451,32.336s7.49688,36.375,10.398,51.5c4.78479,24.948,5.2706,28.753,5.23349,41-.04252,14.04-1.70362,24.867-5.60032,36.5-3.44509,10.285-19.771,44.928-26.496,56.222-6.94848,11.67-7.8725,14.017-6.95608,17.668M455.5,494.602c8.41159-3.82681,22.02-21.057,25.775-32.636,2.74891-8.4758,5.9412-20.672,5.49271-20.985-.14713-.10257-5.99481-2.52-12.995-5.3721-19.005-7.74328-23.881-8.19449-45.273-4.18869-9.35,1.75089-17.38,3.55469-17.844,4.00839s-.68912,7.5217-.5,15.707c.334,14.458.43677,15.07,3.60541,21.502,3.10181,6.29611,12.017,16.016,18.716,20.405,5.1,3.34161,17.29,4.1673,23.023,1.55929Z" transform="translate(-92.95823 -73.76412)"/><path id="f4c2c5a4-675d-4edd-b33e-789b0dacf30e" data-name="path2838" class="b27631d8-9c30-46d9-8cbc-b446c5ba7a53" d="M395.70349,984.46813c7.02-14.65,12.3-28.89,12.3-33.19,0-2.0235-1.19132-3.66839-4.71329-6.50781-14.359-11.576-34.142-33.366-41.912-46.165-2.52868-4.1651-8.673-15.462-13.654-25.104s-9.9114-18.768-10.957-20.281l-1.9003-2.75h-14.963c-11.091,0-15.067.32355-15.363,1.25-.22009.6875-1.11068,3.81043-1.97909,6.93988-1.54791,5.57819-3.48181,8.15668-11.352,15.135-1.7522,1.55377-9.2211,10.809-16.597,20.567-7.3763,9.75812-18.743,23.495-25.26,30.526-6.5168,7.03149-14.284,16.001-17.261,19.933-8.8632,11.707-20.801,39.486-24.046,55.952-1.105,5.60791-2.91651,13.049-4.0257,16.535a44.18338,44.18338,0,0,0-2.01669,10.645,47.83771,47.83771,0,0,1-2.1434,11.161c-1.73371,5.545-2.1023,8.979-1.9285,17.966.245,12.665-.827,16.443-5.8689,20.686-4.1925,3.52771-7.47549,3.44092-11.213-.29669-1.65-1.65-3.7812-3-4.736-3s-3.02941,1.35-4.6102,3c-4.35021,4.54059-7.2728,4.03058-14.327-2.5-3.2674-3.025-6.3677-5.5-6.8896-5.5s-2.3955,1.8-4.1635,4c-2.1152,2.63208-4.0229,4-5.5785,4-2.4356,0-6.4596-3.9834-8.96039-8.86988-1.9658-3.84118-3.6407-16.435-4.6057-34.63-.4667-8.8-1.3391-24.011-1.9387-33.803-.99158-16.193-.91084-18.906.8929-30a515.28145,515.28145,0,0,1,12.699-57.584c3.5539-12.269,4.5888-17.54,4.8326-24.613.25019-7.25592,1.0963-11.411,4.3659-21.441l4.0555-12.441-1.5225-6.55859c-4.138-17.826-5.4788-32.195-5.9771-64.059-.271-17.325-.70152-32.512-.9568-33.75a2.48159,2.48159,0,0,0-2.4849-2.25c-3.9824,0-10.575-4.4093-18.52-12.388-9.4168-9.45569-16.476-20.448-22.891-35.646-3.6899-8.74188-4.7151-12.563-5.6528-21.072-1.4055-12.753-.48469-50.132,1.5001-60.894,3.4158-18.521,12.119-43.63,21.663-62.5,11.268-22.279,18.265-32.643,30.848-45.691l11.388-11.809h-4.92579c-4.0114,0-5.5684.54931-8.388,2.95941a10.65558,10.65558,0,0,1-7.00541,3l-3.54319.04059.81275-9.25c1.88-21.397,6.0651-33.871,14.326-42.703l4.72091-5.0469-4.38681.02371a33.68556,33.68556,0,0,0-10.387,2.5665c-11.214,4.75229-16.992,6.52811-21.318,6.55231-4.422.02-14.165-1.94-14.165-2.86,0-.28339,3.6456-4.36661,8.1014-9.07379,4.51171-4.7663,12.907-15.682,18.947-24.635,5.965-8.842,13.376-19.676,16.47-24.076a140.88037,140.88037,0,0,0,9.51331-16c5.6914-11.708,12.563-33.263,14.982-47,8.2603-46.892,19.509-78.402,38.938-109.08,1.1956-1.8878.79829-2.7244-4.2742-9-7.31551-9.0504-13.197-19.455-15.216-26.919-2.2234-8.2171-3.13839-36.005-1.5166-46.058,3.3272-20.625,11.574-34.759,27.267-46.732,8.48219-6.4715,22.354-13.642,32.181-16.634,23.891-7.27489,61.868-3.1092,80.308,8.80911,9.88269,6.3875,21.425,21.079,29.036,36.956,4.43369,9.25,4.50821,9.3358,7.62061,8.781,24.429-4.3541,33.601-5.1202,61.143-5.1077,29.548.0135,34.145.43331,60.917,5.5634,11.644,2.2312,16.836,3.7703,23.663,7.0148l8.74619,4.15639,12.837-9.0091c16.36-11.477,23.22-15.173,36.84-19.841,13.55-4.6419,24.19-5.4099,41.5-2.994,12.769,1.7822,17.482,3.6689,29.576,11.839,8.15149,5.507,12.301,10.498,17.721,21.315,6.01081,11.997,7.0221,16.995,6.448,31.874-.40393,10.469-1.00409,14.504-3.019,20.299-3.6994,10.639-7.4776,16.411-28.042,42.836l-4.7226,6.0686,2.97339,6.5576c3.7132,8.18931,8.55322,24.347,10.518,35.114,1.81622,9.9518,4.0827,34.593,5.53619,60.192,1.74213,30.68,5.32782,55.695,10.097,70.444a180.80635,180.80635,0,0,0,7.5769,17.791c6.15051,12.664,12.682,20.659,20.434,25.012,2.69562,1.514,4.90149,3.26041,4.9021,3.881s-2.55041,3.09561-5.6687,5.5c-5.629,4.34021-5.72778,4.37149-13.75,4.35129-6.35571-.0159-9.46753-.57816-14.58-2.63419a66.24056,66.24056,0,0,0-10-3.21939l-3.5-.60547-3.09027,9.23972c-1.6997,5.08179-3.7185,10.722-4.4862,12.535-1.00129,2.36359-1.08228,3.4943-.28656,4,3.66381,2.32849,38.32,35.713,43.67,42.066,14.664,17.417,22.991,31.808,29.257,50.56l4.62311,13.835-2.12348,9.18939c-2.68188,11.606-9.82861,26.181-18.589,37.911-8.0794,10.818-21.823,25.218-29.945,31.375-16.466,12.482-51.493,23.931-65.231,21.322-7.28638-1.384-9.88312-2.63141-14.677-7.05042-5.3379-4.92029-8.36463-11.609-9.61731-21.253-2.1164-16.294-1.17371-21.352,5.96038-31.978,5.16-7.66,21.07-22.78,31.04-29.47l5.5-3.69009-8.03039-1.14942c-9.63843-1.37961-10.708-1.9114-19.837-9.865-10.361-9.02661-19.712-15.59-22.212-15.59-2.10041,0-2.204.49807-2.861,13.75-2.1568,43.506-9.0982,74.739-24.725,111.25-7.4606,17.431-30.408,60.908-39.616,75.058-4.49469,6.9071-8.8898,14.557-9.76691,17-2.77881,7.73938-2.11349,15.642,3.36249,39.942,4.57831,20.316,12.123,58.316,17.373,87.5,3.09741,17.218,1.5502,36.674-4.33319,54.487-3.63449,11.004-19.351,44.507-26.797,57.124-6.9212,11.727-8.03781,15.188-6.08,18.846.53729,1.0039,9.42481,6.67041,19.75,12.592m-325.955,2.19952c2.9896-2.98962.84745-6.8-3.82279-6.8-2.6868,0-3.3434,1.70191-1.9522,5.06043,1.2681,3.06128,3.7159,3.7987,5.775,1.73962Zm19.955-.05a13.1328,13.1328,0,0,0,1.7126-3.57171c1.30009-4.23633-4.2912-7.84583-8.2565-5.33-1.50141.95252-.1554,5.451,2.5133,8.3999,1.88111,2.07862,2.6886,2.17908,4.0306.50177Zm-44.77-5.059c-.0204-2.92309-1.496-5.11108-2.8729-4.26007-1.3694.84632-1.3888,1.71051-.11367,5.06421,1.1359,2.98749,3.0095,2.48309,2.9866-.80408Zm311.77-570.03c3.9563-1.43481,9.4827-6.67208,17.585-16.665,3.34452-4.125,6.34909-7.725,6.67679-8,1.83859-1.54291,9.24021-28.063,8.143-29.177-.3667-.37222-6.5167-3.03579-13.667-5.91919-19.112-7.70721-24.169-8.1231-46-3.78338l-17,3.3793.003,16c.003,15.995.004,16.002,3.1444,22,2.99012,5.71121,12.59,16.03,18.473,19.856,5.0083,3.2572,16.731,4.4526,22.642,2.3089Zm69.704-62.602c11.393-5.49539,17.312-10.962,21.954-20.279,3.2077-6.43689,3.33423-12.444.44739-21.238-2.76691-8.4285-7.34332-13.671-15.395-17.635-7.9711-3.9242-9.12909-5.17521-7.69781-8.31661,1.43258-3.1441.84344-3.3775-23.936-9.48241-36.932-9.0991-48.999-10.415-82.765-9.0287-30.303,1.2444-35.491,2.254-36.459,7.094-.46631,2.33149-1.5459,3.31979-5.3493,4.897-11.076,4.59331-13.447,6.28931-19.379,13.866-11.841,15.123-13.651,23.208-7.81079,34.895,5.92111,11.849,15.676,17.154,32.924,17.904,10.727.46659,12.214.27936,41.5-5.22531a219.42209,219.42209,0,0,1,24.5-3.12341c11.921-.55841,9.74271-1.1687,46,12.889,10.725,4.1582,19.889,7.5964,20.365,7.6405.47574.0441,5.47119-2.1416,11.101-4.85709Zm-79.126-23.532c-7.2503-3.681-13.411-9.414-16.844-15.675-2.55881-4.6662-2.94061-6.4035-2.96631-13.499-.03519-9.69159.55081-10.583,10.302-15.679,14.099-7.36749,24.059-8.4372,35.668-3.8308,14.742,5.8496,19.456,11.096,19.456,21.654,0,6.7965-2.6362,12.027-9.146,18.148-7.9585,7.48309-14.621,10.586-23.81,11.09-6.5852.36121-8.12939.09189-12.66-2.20819Zm177.56-199.28c19.341-22.984,23.268-32.148,18.108-42.262a41.14774,41.14774,0,0,0-11.046-13.025c-7.89282-5.6202-25.124-4.2696-38.699,3.0332-9.50891,5.1153-18.735,11.936-17.594,13.006.465.43631,6.43091,5.5604,13.257,11.387,11.044,9.426,24.134,23.173,28.698,30.138.89111,1.36,1.99353,2.4728,2.44971,2.4728s2.62817-2.13749,4.8266-4.75Zm-371.61-31.52c9.7079-8.2261,28.02-20.538,35.985-24.195,3.979-1.8267,12.522-5.2426,18.985-7.5908,6.46249-2.3482,11.75-4.7161,11.75-5.2621,0-1.4308-4.57639-7.4302-9.87342-12.943-5.4616-5.6846-11.433-8.172-23.463-9.7728-6.3954-.85107-9.9138-.84744-14.066.0145-13.637,2.831-27.055,13.096-30.093,23.02-2.1414,6.9948-3.1356,27.038-1.618,32.619.99342,3.6533,4.48331,9.3806,5.71609,9.3806a66.40324,66.40324,0,0,0,6.6774-5.2704Z" transform="translate(-92.95823 -73.76412)"/><path id="e959b21c-56ef-4464-9bcc-a615b2ca413b" data-name="path2836" class="fafb574c-6cae-42f9-9a9f-bf6491502265" d="M378.81924,1025.46179c6.19141-16.225,13.989-35.125,17.327-42,6.64-13.7,11.85-27.83,11.85-32.16,0-2.23633-1.5719-4.07678-8.25-9.65973-9.0773-7.58868-16.71-15.474-27.374-28.282-8.87439-10.658-12.97-17.275-24.459-39.512-5.08881-9.84967-10.108-19.146-11.153-20.659l-1.9003-2.75H304.252l-.64834,4.05463c-1.04019,6.50512-4.56549,12.85-9.00479,16.206-4.6399,3.50842-7.923,7.427-22.836,27.256-5.7836,7.69043-15.333,19.158-21.22,25.483-20.903,22.455-25.186,29.118-36.084,56.134a145.37024,145.37024,0,0,0-6.3954,21c-1.1581,5.70129-2.9968,13.219-4.0862,16.705a45.21736,45.21736,0,0,0-1.98061,10.782,41.1028,41.1028,0,0,1-2.12719,10.661c-1.7567,5.13549-2.094,8.259-1.937,17.935.21574,13.294-.94956,17.167-6.4209,21.34-4.2326,3.22839-7.0298,3.08252-10.669-.5564-1.65-1.65-3.7812-3-4.736-3s-3.02941,1.35-4.6102,3c-4.35021,4.54059-7.2728,4.03058-14.327-2.5-3.2674-3.025-6.3182-5.5-6.7797-5.5s-2.4815,1.907-4.489,4.2378c-3.3554,3.896-3.8788,4.15741-6.4866,3.24029-1.5602-.5487-4.1668-2.8902-5.7925-5.20331-3.7044-5.27081-5.3387-14.497-6.6025-37.275-.50354-9.075-1.39321-24.665-1.977-34.644-1.0202-17.439-.96337-18.714,1.4649-32.823,3.84639-22.348,7.15879-37.194,12.122-54.331,3.54409-12.236,4.5854-17.539,4.83979-24.647.261-7.29278,1.1122-11.473,4.37211-21.474l4.048-12.418-1.5279-6.582c-4.0848-17.596-5.4602-32.264-5.9626-63.582-.5767-35.952-.715-37.493-3.3044-36.815-5.6182,1.46918-23.104-14.21-31.909-28.612-8.05651-13.178-13.823-27.905-15.104-38.572-2.1551-17.952-.88014-53.64,2.4255-67.894a267.43992,267.43992,0,0,1,24.488-64.651c10.75-19.545,16.322-27.4,27.737-39.105l10.581-10.85h-4.9461c-4.034,0-5.5846.54575-8.4084,2.95941a10.97846,10.97846,0,0,1-6.71221,3c-3.0975.0387-3.2496-.13528-3.2418-3.70941.01661-7.56988,2.06771-21.937,4.1028-28.738,2.8241-9.4375,5.2333-13.897,10.619-19.654l4.544-4.858-4.3868.04392c-4.449.04449-5.238.28738-19.302,5.941-4.7157,1.89569-9.695,3.18179-12.318,3.18179-4.6034,0-14.267-1.971-14.267-2.91,0-.2991,3.5246-4.21508,7.8324-8.7022,7.0288-7.32142,14.037-17.035,37.755-52.328,9.85291-14.662,17.666-35.13,21.999-57.63,1.3871-7.2031,3.3959-17.677,4.46389-23.276,5.1111-26.793,17.9-59.97,31.907-82.776,2.6859-4.373,3.951-7.37841,3.40711-8.0942-11-14.476-13.814-18.605-16.466-24.161-3.97729-8.3338-5.8829-20.487-5.89239-37.581-.0204-36.944,13.486-58.73,46.522-75.039,22.738-11.225,52.293-12.347,80.663-3.0606,13.924,4.5577,21.736,10.995,33.386,27.51,5.42,7.6144,12.46,21.068,12.46,23.724,0,1.5799-.47092,1.6227,22.5-2.0434,12.078-1.9276,17.912-2.2371,42.5-2.2544,30.13-.0211,34.611.38153,61.417,5.518,11.643,2.231,16.836,3.7704,23.661,7.0136l8.74371,4.1552,11.307-7.8734c16.76-11.668,22.52-15.054,31.37-18.442,19.05-7.2882,28.703-8.3446,49.5-5.4174,11.545,1.625,18.925,4.7904,30.676,13.158,8.62708,6.1431,17.492,20.198,20.835,33.031,3.21412,12.34,1.17878,33.412-4.419,45.751-1.50849,3.3252-8.3338,13.411-15.167,22.412-6.8335,9.00151-12.983,17.125-13.665,18.052-1.029,1.3982-.64557,3.09711,2.24609,9.95351,9.3653,22.206,12.57,41.673,15.496,94.128,2.75489,49.387,9.13147,76.141,23.477,98.5a41.1826,41.1826,0,0,0,14.771,14.323c2.61188,1.4722,4.74939,3.18461,4.75,3.80521s-2.52551,3.07761-5.6134,5.4599c-4.96759,3.83249-6.32611,4.3768-11.792,4.72479-4.94769.315-7.9602-.21035-15.136-2.63971-4.92713-1.66821-10.349-3.30951-12.048-3.64749-3.0747-.61145-3.09808-.5831-4.84912,5.88559a90.12967,90.12967,0,0,1-4.55041,12.401l-2.7909,5.9014,10.14,9.06381c27.299,24.401,42.262,41.182,53.054,59.497,5.45862,9.26349,8.28858,15.847,12.517,29.116,3.48932,10.95,3.3747,13.625-1.16168,27.108-8.16919,24.282-36.444,57.8-57.763,68.474-16.622,8.32282-36.386,14.213-48.007,14.307-12.575.10162-22.454-5.934-26.997-16.495-2.54937-5.92608-4.43707-21.179-3.5625-28.786.69226-6.02081,5.79773-15.673,11.719-22.157,5.80572-6.35681,18.752-17.708,25.153-22.056l6.1695-4.18961-8.02173-1.14621c-9.62848-1.3757-10.699-1.90829-19.828-9.86169-10.519-9.16422-19.724-15.59-22.333-15.59-2.03668,0-2.3017.48642-2.31543,4.25-.06842,18.787-4.03119,52.684-8.38819,71.75-2.83477,12.405-11.816,38.069-18.528,52.947-8.30261,18.402-29.422,58.092-37.541,70.553-8.998,13.809-10.341,16.656-11.629,24.654-.85572,5.31348-.414,8.22132,5.0263,33.086,5.40051,24.683,11.95,57.797,17.26,87.26,3.10019,17.204,1.55939,36.623-4.32339,54.487-3.15369,9.577-20.086,46.095-25.208,54.367-2.4335,3.93-5.6452,9.50268-7.13709,12.384-2.6987,5.21179-2.70309,5.25452-.86377,8.38422,1.3892,2.36358,6.8209,5.99182,21.849,14.594m-327.588.92468a5.50305,5.50305,0,0,0,.87244-3.75c-.265-1.8695-1.0353-2.36358-4.0768-2.61542-4.13991-.34259-4.661.7168-2.58949,5.26331,1.28489,2.82,3.94769,3.3266,5.79379,1.10211Zm21.066-2.11767c1.0089-3.05689.92688-3.83783-.57742-5.5-3.0862-3.41022-9.2287-1.98719-8.00909,1.8554.94691,2.9834,4.4989,7.20728,6.0608,7.20728.74244,0,1.879-1.60321,2.5257-3.56268Zm-46.193-3.98841c-.18049-1.537-.89044-2.97931-1.57759-3.20489-1.89081-.62091-2.6644,2.55218-1.3341,5.47192,1.4775,3.2428,3.3844,1.75818,2.91179-2.267Zm348.41-132.57c8.4577-4.526,5.58331-31.754-9.22379-87.372-3.656-13.732-4.3305-17.842-4.7597-29-.56381-14.659.847-22.547,5.4487-30.464,1.4501-2.49481,3.71561-6.70142,5.03439-9.348a140.34387,140.34387,0,0,1,7.62052-12.5c5.86889-8.63922,23.25-42.461,29.645-57.688,2.31021-5.5,5.98809-13.94,8.17318-18.756,7.6153-16.783,10.916-28.145,11.839-40.744.82849-11.32,3.97711-31.282,5.89643-37.384,2.65087-8.42691,4.8598-39.321,4.62-64.616-.22687-23.929-.3866-25.9-2.59338-32-2.05078-5.66831-2.35742-8.35541-2.39588-21-.0274-8.99161.38147-15.22,1.07617-16.394.9983-1.68771,1.54279-1.1426,4.99451,5,3.24262,5.77051,4.11939,8.62439,5.37958,17.509l1.50549,10.615,11-14.378c13.343-17.44,14.698-20.071,13.895-26.982-.395-3.40069-.20489-5.3706.564-5.84579.63781-.3942,3.69262.5639,6.78839,2.12909,7.39282,3.7377,10.508,9.19879,12.748,22.346,1.87012,10.977,4.12922,16.375,7.02723,16.79,1.63189.23377,3.2088-1.79709,8.15258-10.5,7.07-12.46,10.32-22.04,10.32-30.41,0-3.2421.27777-5.89472.61731-5.89472s6.977,1.53229,14.75,3.4051c14.028,3.37991,21.633,4.81768,21.633,4.09021a67.84869,67.84869,0,0,0-5.03632-6.13419c-6.75177-7.7157-10.516-13.549-12.962-20.086-2.98292-7.9725-7.81128-27.581-9.05573-36.775-.59552-4.4-1.9411-12.5-2.99017-18s-2.17609-12.925-2.50452-16.5-1.31018-10.325-2.18182-15a111.555,111.555,0,0,1-1.33191-22c.48156-25.709.4613-25.961-3.31049-41.154-11.64-46.89-25.24-70.95-53.99-95.523-24.88-21.257-47.72-34.262-72.54-41.291l-11.172-3.1646-16.216,2.131c-8.91861,1.1721-18.099,2.5478-20.4,3.0572-4.90979,1.0867-14.953,4.7333-17.815,6.4684-14.176,8.5942-35.272,22.419-40,26.214-7.93909,6.3717-23.106,25.49-29.153,36.748-8.77069,16.329-11.349,21.959-12.201,26.645l-.84207,4.62829,5.65451,1.5721c10.408,2.8938,20.586,12.573,24.192,23.007,7.9808,23.094-9.312,47.172-34.375,47.863-5.501.15161-5.77411.28124-5.75321,2.7302.04,4.6773,3.74262,10.873,10.734,17.963l6.90149,6.998,5.9212-1.83851c6.16669-1.91479,8.93711-1.4763,10.118,1.6014.8341,2.17371-3.31421,5.7162-9.19681,7.8538a47.18863,47.18863,0,0,0-7.32282,3.318c-3.26559,2.1105-14.79,17.104-17.158,22.323-3.04361,6.70739-2.68039,14.209,1.04941,21.673,6.0033,12.014,15.575,17.229,32.932,17.945,10.768.44394,14.089.0195,42-5.36771a139.14962,139.14962,0,0,1,25.5-2.7518l12-.14612,14,5.696c7.7,3.13281,19.607,7.77249,26.459,10.31l12.459,4.61429,8.9768-3.8103c10.96-4.65189,18.789-11.427,23.569-20.394,3.01282-5.65259,3.24482-6.7201,2.77942-12.792-.62518-8.1579-3.94592-17.174-7.713-20.941-1.55768-1.55771-6.0563-4.5264-9.9967-6.59711-7.64371-4.01669-9.04059-5.6684-6.9372-8.2029,1.99719-2.4064,12.322-1.4684,18.429,1.6744,10.094,5.1947,18.84,21.338,18.66,34.442-.091,6.60709-4.84772,24.811-7.56818,28.963-.96691,1.47571-5.07159,4.2584-9.4154,6.383-19.851,9.70969-26.037,14.756-31.446,25.654-3.71921,7.49341-4.7493,11.384-5.12641,19.359-.29889,6.32181-.74756,7.77231-3.53869,11.44-1.758,2.3104-5.6774,9.3757-8.70981,15.701-3.03241,6.325-6.9458,13.002-8.6966,14.838-4.00049,4.19489-18.047,12.586-24.723,14.77-11.041,3.61139-40.1-.0636-53.214-6.72979-6.11-3.1-14.69-10.19-18.74-15.49-1.925-2.5192-4.24771-5.5467-5.16159-6.72782-2.86291-3.7-9.152-2.93-16.338,2.0004-3.3,2.264-10.05,6.61719-15,9.6738-24.414,15.075-43.551,33.678-51.618,50.178-3.7457,7.6607-10.508,32.214-11.607,42.143-.81576,7.36969.18894,8.07181,11.647,8.13919,18.216.10718,28.487,3.84259,38.73,14.086,25.433,25.433,19.61,49.793-19.516,81.631-11.567,9.41248-14.468,13.298-15.679,21-1.49661,9.52149,11.072,28.437,27.543,41.452,5.388,4.25738,14.649,9.04779,17.491,9.04779a36.39325,36.39325,0,0,1,6.9317,2.057c5.524,2.06677,11.826,7.25921,26.631,21.943,3.60461,3.575,9.34189,8.6806,12.75,11.346,10.423,8.1521,21.964,22.687,32.478,40.904,3.095,5.36249,5.3103,9.7569,4.923,9.76532-.38736.008-.25427.346.29572.75,1.98028,1.45489,11.386,21.756,12.143,26.208.93082,5.47882,2.694,9.29919,5.70661,12.365,1.73291,1.76361,4.86621,5.3313,6.963,7.9284a30.2947,30.2947,0,0,0,16.834,10.695c4.69312.96252,12.281.41443,15.093-1.09021Zm-45.95-522.37c-11.399-5.78619-18.881-15.845-19.956-26.83-.82766-8.45761,1.09009-12.279,8.3606-16.658a76.3181,76.3181,0,0,1,13.279-6.0087c10.503-3.3772,17.587-2.56509,29.586,3.3916,10.397,5.16152,13.339,8.5125,14.203,16.181.86408,7.666-1.40069,13.184-8.22519,20.039-8.27279,8.31039-14.914,11.59-24.537,12.118-6.60071.36206-8.12479.09421-12.711-2.23361Zm107.44-61.87c-7.18542-3.0246-11.979-6.6348-15.918-11.989-13.49-18.336-7.52011-43.773,12.597-53.677,19.699-9.69769,42.38-2.33219,51.81,16.825,2.951,5.9951,3.27533,7.5204,3.2284,15.185-.04279,6.9939-.51941,9.537-2.6604,14.195a38.74269,38.74269,0,0,1-17.035,17.9c-5.7063,3.063-7.125,3.38361-16.252,3.6727-8.76831.27772-10.711.01759-15.77-2.112Zm74.925,318.92c9.38977-2.54352,18.798-6.65839,23.794-10.407a111.79423,111.79423,0,0,1,11.551-7.2981c26.449-14.276,25.402-13.552,29.212-20.178,7.50318-13.046,9.24012-18.342,9.24012-28.174,0-7.53671-.42829-9.97571-2.6341-15.001-9.56158-21.783-28.349-45.814-53.53-68.471l-11.211-10.087-3.28858,1.39151a17.104,17.104,0,0,0-5.15368,3.4855c-1.08161,1.2143-3.71222,2.371-6.26172,2.7533-8.57483,1.28589-12.015,6.83758-11.124,17.949.714,8.89582,5.31043,17.148,14.75,26.48a89.29592,89.29592,0,0,0,13.503,11c5.39063,3.1885,6.64832,3.51089,14.131,3.6224,13.147.19586,15.599,1.60181,12.045,6.90509a34.10108,34.10108,0,0,0-2.65979,5.47251c-2.352,6.15319-6.08118,10.094-15.493,16.372-5.05323,3.37052-12.976,8.6793-17.606,11.797-8.757,5.897-28.524,25.415-34.727,34.289-3.72009,5.32221-5.17438,12.941-2.97553,15.588,3.99732,4.81268,5.53583,5.15777,19.939,4.47271,7.51032-.35724,15.835-1.24011,18.5-1.96191Zm-166.46-142.22c10.774-4.8349,21.465-19.021,26.93-35.732,4.27521-13.073,11.093-39.578,10.547-41.001-.48322-1.25919-24.593-11.956-35.079-15.564-10.35-3.56079-18.993-3.51639-37.097.19061l-16,3.27622-.64883,7.5c-.97785,11.303.51919,23.793,3.64349,30.397,3.0892,6.53009,13.876,17.648,19.929,20.541,5.469,2.61349,14.961,3.5744,20.52,2.07739,4.85709-1.30789,11.856-7.90289,20.056-18.9,2.475-3.319,4.8375-6.05261,5.25-6.0747s.75,2.25931.75,5.06979c0,10.004-9.36749,22.795-20.537,28.043-7.21482,3.3898-16.457,5.26379-21.769,4.41422-5.4887-.87766-12.043-4.45551-20.722-11.312-5.74091-4.53518-8.30441-7.40271-10.795-12.076-6.31009-11.839-7.38559-16.308-7.92472-32.929l-.4946-15.25-3.12838.009c-1.72062.005-5.475.29059-8.3432.63513l-5.21482.62644.51859,14.615c.85464,24.086,1.88519,30.464,6.40091,39.615,4.809,9.74469,12.975,20.738,18.236,24.549,4.57239,3.31219,14.989,7.3696,22.774,8.871,3.025.58338,6.4,1.267,7.5,1.51929a66.89827,66.89827,0,0,0,10.416-.009c6.19809-.34421,9.9625-1.1612,14.282-3.0997Zm160.02-312.08c1.42657-1.5125,5.78979-6.8,9.69592-11.75,15.215-19.281,16.017-27.753,3.88482-41.028-5.91351-6.4703-9.676-7.9188-20.3-7.8151-10.688.10429-19.74,3.3395-31.965,11.424-5.25,3.464-9.54,6.596-9.54,6.956,0,.35978,4.16248,4.1332,9.25,8.3853,12.505,10.452,22.634,20.502,29.507,29.276,3.14411,4.0139,5.97571,7.298,6.29248,7.298a12.72324,12.72324,0,0,0,3.16992-2.75Zm-363.72-38.432c10.282-7.697,24.373-16.836,29.29-18.998,2.59052-1.1388,10.877-4.4159,18.414-7.2826l13.704-5.2121-2.62838-3.9148c-8.75-13.025-14.06-16.554-28.64-19.017-12.52-2.1158-18.5-1.3521-28.47,3.639-16.67,8.341-20.67,15.987-20.67,39.464,0,12.494.111,13.189,2.8525,17.853l2.85249,4.8529,3.64751-3.4462c2.01-1.895,6.35-5.467,9.65-7.938Z" transform="translate(-92.95823 -73.76412)"/><path id="e757b823-574e-4946-beb1-ab7cc472ea65" data-name="path2834" class="a777986e-356a-45ee-8a0c-98e6b348a5c4" d="M373.12766,1049.10638c8.20309-23.214,17.10787-53.05731,22.75588-64.68433,6.55-13.42,12.11-28.62,12.11-33.06,0-2.23632-1.5719-4.07678-8.25-9.65972-13.96-11.671-31.16-31.248-39.226-44.649-2.63071-4.37042-8.8447-15.845-13.809-25.5-4.96421-9.6546-9.70072-18.341-10.526-19.304-1.30631-1.52429-3.46232-1.75-16.717-1.75h-15.217l-.65283,4.08258c-.98355,6.1507-5.0954,13.42-9.3276,16.49-4.2432,3.07788-7.45371,6.92249-22.501,26.945-5.7795,7.69043-15.35,19.158-21.267,25.483-13.104,14.007-21.928,24.964-25.055,31.111-7.56931,14.882-14.815,34.111-17.48,46.389-1.552,7.15-3.5307,14.969-4.39709,17.376a32.883,32.883,0,0,0-1.5753,9.28161,42.21414,42.21414,0,0,1-2.1272,11.124c-1.7567,5.1355-2.094,8.259-1.937,17.935.21575,13.294-.94955,17.167-6.4209,21.34-4.2326,3.2284-7.0298,3.08252-10.669-.55639-1.65-1.65-3.78121-3-4.736-3s-3.0294,1.35-4.6102,3c-4.4086,4.60162-7.4389,4.0689-14.221-2.5-3.1231-3.025-6.1388-5.5-6.7015-5.5s-2.6655,1.907-4.6729,4.23779c-3.3554,3.896-3.8788,4.15741-6.4866,3.24029-1.56021-.5487-4.1668-2.89019-5.79251-5.2033-3.70439-5.27082-5.3387-14.497-6.6025-37.275-.50353-9.075-1.3932-24.665-1.977-34.644-1.02021-17.439-.96338-18.714,1.46489-32.823,3.8464-22.348,7.1588-37.194,12.122-54.331,3.5441-12.236,4.58541-17.539,4.8398-24.647.26081-7.28608,1.112-11.472,4.3558-21.422l4.0316-12.366-1.8841-8.63379c-3.8438-17.614-5.0519-31.105-5.5641-62.134-.5606-33.961-.81411-37.167-2.8763-36.375-3.0417,1.16717-10.937-3.76868-18.995-11.876-14.684-14.8-26.427-37.91-28.446-56-2.107-18.9-.876-52.89,2.433-67.16,5.05-21.77,14.217-45.98,24.487-64.65,10.75-19.545,16.322-27.4,27.737-39.105l10.581-10.85h-4.94611c-4.034,0-5.5846.54574-8.4084,2.95941a10.97846,10.97846,0,0,1-6.7122,3c-3.09751.0387-3.24961-.13528-3.2418-3.70941.0166-7.56989,2.0677-21.937,4.1028-28.738,2.82409-9.4375,5.23329-13.897,10.619-19.654l4.544-4.858-4.38681.04391c-4.449.0445-5.238.28739-19.302,5.941-4.7157,1.89569-9.695,3.1818-12.318,3.1818-4.6034,0-14.267-1.971-14.267-2.91,0-.2991,3.5246-4.21509,7.8324-8.70221,7.0288-7.32141,14.037-17.035,37.755-52.328,9.8504-14.658,17.662-35.12,22.002-57.63,1.3886-7.20309,3.4433-17.822,4.56611-23.597,5.28419-27.18,17.801-59.63,31.807-82.456,2.6781-4.3647,3.9456-7.3778,3.40269-8.08889-16.077-21.059-18.998-26.654-21.081-40.371-2.10181-13.846-1.2619-38.028,1.67-48.084,6.4839-22.239,18.5-35.661,42.545-47.527,22.642-11.173,46.127-13.052,74.26-5.9417,18.751,4.7389,28.225,11.541,40.508,29.086,5.53,7.9071,12.73,21.536,12.73,24.108,0,1.6888-.11737,1.6975,19.5-1.4475,15.806-2.5339,19.072-2.7219,46.5-2.6762,25.877.0431,31.158.32766,43,2.3169,25.085,4.2137,32.222,5.9914,41.268,10.279l8.76831,4.1555,3.0156-2.2295c12.747-9.4243,29.496-19.958,36.3-22.83,19.946-8.4184,31.245-9.8637,52.52-6.7185,11.819,1.7473,17.668,4.2254,29.851,12.648,8.19488,5.6651,13.824,13.393,19.388,26.62,2.80481,6.66731,3.28167,9.1012,3.67651,18.765.53095,12.995-1.36963,24.316-5.67529,33.807-1.51929,3.3489-8.3534,13.454-15.187,22.455-6.8335,9.00151-12.983,17.125-13.665,18.052-1.02942,1.3988-.63391,3.1245,2.32257,10.134,9.235,21.893,12.558,42.228,15.433,94.448,1.59613,28.991,5.39362,55.207,10.084,69.616a148.51133,148.51133,0,0,0,13.072,27.936c4.51428,7.057,8.73218,11.216,14.872,14.665,2.72528,1.53061,4.9555,3.2702,4.95611,3.8656.001,1.32089-6.32281,6.5004-10.699,8.76291-4.8056,2.48431-12.303,2.0524-22.139-1.27539-4.76312-1.61139-10.051-3.2063-11.75-3.54419-3.07471-.61145-3.09808-.5831-4.84912,5.88559a90.12006,90.12006,0,0,1-4.5462,12.393l-2.78669,5.89249,10.636,9.57309c27.906,25.118,41.618,40.54,52.681,59.253,5.32111,9.00031,8.17261,15.647,12.386,28.868,3.48932,10.95,3.37469,13.625-1.16169,27.108-8.16919,24.282-36.444,57.8-57.763,68.474-16.6,8.31-36.36,14.2-47.98,14.3-12.53.10126-22.454-5.93561-26.954-16.397-2.979-6.92481-4.73382-24.231-3.167-31.232,2.45453-10.968,17.241-28.074,35.581-41.16l6.8858-4.9136-7.953-1.1363c-9.55512-1.3652-10.639-1.90548-19.76-9.85189-10.35-9.01749-19.711-15.59-22.204-15.59-2.08582,0-2.198.52322-2.84113,13.25-1.21411,24.028-4.17541,46.596-8.5719,65.328-2.53747,10.811-12.036,37.329-18.241,50.922-8.806,19.294-29.194,57.594-37.263,70-8.9869,13.818-10.327,16.664-11.614,24.654-.85565,5.31317-.41382,8.22278,5.02441,33.086,3.27939,14.993,6.91849,32.435,8.0868,38.76s3.98239,20.725,6.25338,32c3.676,18.25,4.1276,22.036,4.1149,34.5-.0152,14.973-1.06979,22.258-5.04291,34.835-3.74429,11.853-19.46,45.544-27.549,59.061-7.5567,12.627-8.5375,16.322-5.20221,19.599,1.0542,1.03589,10.467,6.77149,20.917,12.746m-327.59494.81329a5.503,5.503,0,0,0,.87243-3.75c-.265-1.86951-1.03529-2.36359-4.0768-2.61542-4.1399-.34259-4.661.7168-2.58949,5.26331,1.2849,2.82,3.94769,3.3266,5.79379,1.10211Zm21.066-2.11768c1.0089-3.05688.92688-3.83783-.57742-5.5-3.0862-3.41021-9.2287-1.98718-8.0091,1.85541.94692,2.9834,4.4989,7.20728,6.06081,7.20728.74243,0,1.879-1.60321,2.52569-3.56269Zm-46.193-3.9884c-.1805-1.537-.89044-2.97931-1.5776-3.20489-1.8908-.62092-2.6644,2.55218-1.3341,5.47192,1.4775,3.2428,3.3844,1.75818,2.9118-2.267Zm350.1-129.91a12.5549,12.5549,0,0,0,4.591-4.57581c1.451-2.80579,1.31711-4.38171-2.01611-23.733-3.8262-22.214-8.2901-42.572-14.083-64.228-6.2561-23.387-5.88119-44.646.99579-56.464,1.29169-2.21978,6.014-10.111,10.494-17.536,13.976-23.164,35.394-67.281,45.42-93.557,7.22119-18.924,8.84021-27.23,13.635-69.943,1.66687-14.85,4.12378-34.65,5.45972-44,3.18322-22.279,3.915-34.155,2.1463-34.834-1.98761-.76273-7.27008-14.269-8.626-22.056-1.33972-7.693-.86249-26.15.75061-29.032.9126-1.6308,1.5332-.99634,4.91852,5.02789,3.246,5.77661,4.1181,8.6185,5.37958,17.531l1.5,10.64,10.5-13.63c13.459-17.476,15.287-20.991,14.441-27.769-.41767-3.34271-.25306-5.3688.47253-5.81729.61237-.37848,3.55078.42777,6.53,1.7916,4.46722,2.04519,5.95038,3.41439,8.46222,7.81259a33.80531,33.80531,0,0,1,3.66888,9.8374c1.92908,13.944,5.29322,23.005,8.54169,23.005.42206,0,3.372-4.38751,6.5553-9.75,7.28448-12.271,11.279-23.574,11.307-32,.01172-3.4375.29908-6.25.63862-6.25s6.977,1.53229,14.75,3.4051c21.529,5.18719,24.318,5.33,19.523.9999-4.295-3.8786-11.994-14.389-14.417-19.682-2.8938-6.3209-8.87188-28.692-10.445-39.09-.59381-3.92361-2.42823-24.909-4.0763-46.634-3.16137-41.672-4.46991-52.182-8.52307-68.457-6.44012-25.859-15.621-48.525-26.089-64.41-14.07-21.35-50.44-50.724-78.82-63.658-4.23-1.928-14.74-5.521-23.36-7.985l-15.66-4.479-14.65,1.936c-22.89,3.027-26.96,4.542-51.85,19.322-19.84,11.78-23.44,14.718-42.21,34.458-3.56829,3.752-7.92559,10.095-11.603,16.89-3.23889,5.985-6.85462,12.582-8.03491,14.661-2.69,4.73-6.15,14.88-6.15,18.05,0,2.1223.55936,2.4585,4.95609,2.9792,10.85,1.285,23.488,10.863,28.24,21.401,1.71258,3.798,2.1683,6.7594,2.199,14.291.04639,11.37-1.811,16.323-9.0072,24.016-8.3306,8.9061-16.101,12.131-29.114,12.083l-8.27-.04.01,3.216c.0173,5.6935,4.22909,12.841,11.484,19.489,3.7377,3.425,7.2933,6.2081,7.9013,6.18469a69.81979,69.81979,0,0,0,8.05481-2.4284c5.09839-1.7504,7.44409-2.1212,8.80649-1.39211,4.925,2.63581,1.93381,7.221-6.756,10.356a41.3233,41.3233,0,0,0-7.76511,3.7342c-3.57791,2.4975-14.287,16.571-16.768,22.035-5.57322,12.278,1.27679,28.749,14.81,35.613,10.666,5.40921,26.539,5.332,55.584-.27011,10.374-2.001,23.424-3.9029,29-4.2265,11.404-.66184,8.58911-1.4643,49.569,14.132l17.431,6.63392L522.35,433.799q16.45949-6.98685,23.579-20.372c2.9707-5.5737,3.22851-6.7421,2.822-12.792-.54084-8.04971-3.889-17.125-7.7378-20.974a51.92879,51.92879,0,0,0-9.82339-6.506c-3.84509-2.0206-7.2724-4.4067-7.61621-5.30261-1.65821-4.3211,5.59949-5.696,15.129-2.8661,4.00518,1.1894,6.271,2.7931,10.69,7.5663,6.943,7.4992,8.16821,9.8356,9.66479,18.43,1.83521,10.538.73059,21.174-3.03711,29.244-3.99353,8.5531-7.44592,12.121-18.037,18.64-9.31562,5.7338-12.581,7.19589-18.29,8.18909-5.93921,1.03338-8.122,4.887-13.276,23.439-2.48569,8.9473-5.84391,19.702-7.46271,23.9a80.34419,80.34419,0,0,1-30.273,37.407c-9.17319,6.08881-12.74,7.0658-25.699,7.03839-9.77508-.02069-12.739-.43179-19.763-2.741-19.501-6.41159-28.533-12.761-37.306-26.228-3.7742-5.79251-4.48651-6.3938-7.57348-6.3938-4.32032,0-14.705,5.2074-28.858,14.471-21.149,13.843-41.778,32.565-48.826,44.314-4.8162,8.0279-10.757,25.721-12.16,36.215-.33084,2.475-1.057,7.117-1.6138,10.316-.71469,4.1062-.686,6.80411.09769,9.17859l1.10989,3.363,11.743-.04159c19.949-.07071,29.919,3.34308,40.542,13.882,14.252,14.139,18.716,27.919,13.532,41.773-6.17059,16.493-12.993,23.821-52.304,56.184-2.7283,2.24609-1.77938,12.135,1.80829,18.846,6.97821,13.052,22.12,29.728,32.623,35.928a77.06241,77.06241,0,0,0,12.5,5.56262,100.17089,100.17089,0,0,1,10.528,4.08081c4.90162,2.4588,17.616,13.144,39.778,33.429,7.72439,7.07032,20.637,24.764,23.717,32.5,1.42349,3.575,4.976,11.45,7.8945,17.5s6.3399,13.475,7.60321,16.5c3.74179,8.9599,8.6955,16.002,17.311,24.609,8.43289,8.42438,13.886,11.912,20.961,13.404,5.4314,1.1457,12.78.49158,16.586-1.4765Zm-47.73-525.07c-6.93759-3.52051-14.752-11.222-17.446-17.192-2.2323-4.94781-2.95279-14.27-1.50259-19.441,1.03241-3.68069,10.197-9.25239,20.553-12.496,11.026-3.4529,16.975-2.9476,28.324,2.4061,9.52881,4.49481,13.408,7.9248,14.855,13.136,2.55091,9.18351.48063,15.762-7.438,23.636-8.55491,8.5062-15.036,11.744-24.505,12.244-6.65411.35086-8.16019.08191-12.84-2.29279Zm107.43-61.874c-15.715-6.585-25.243-23.044-22.63-39.096,4.0116-24.648,31.376-37.948,54.576-26.527,12.51,6.15871,19.749,17.901,19.749,32.036,0,14.307-7.214,25.863-20.115,32.219-5.90119,2.90781-7.74018,3.3115-16.185,3.553-8.24042.23565-10.32-.0596-15.395-2.1863Zm72.856,322.23c8.31512-1.75159,22.697-7.82379,28.012-11.827a75.171,75.171,0,0,1,9.5-6.01068,68.38428,68.38428,0,0,0,7-4.00311,97.63423,97.63423,0,0,1,8.72711-4.92188c5.41248-2.74969,6.88111-4.15979,11.227-10.779,11.234-17.112,14.342-30.473,10.069-43.279-6.6427-19.904-27.11-46.916-54.152-71.468l-13.63-12.375-3.37018,3.50369c-4.556,4.73639-6.36932,5.5875-13.342,6.2619-5.70318.55164-6.07312.7573-8.23358,4.57761-2.68481,4.7475-3.03583,12.72-.876,19.897,3.38392,11.244,17.236,26.907,29.763,33.656,5.59949,3.01639,7.26441,3.4241,14.645,3.5856,4.57972.10022,8.59028.44577,8.91242.76785s.03949,1.78421-.628,3.24921c-.90808,1.9931-.92462,2.84219-.0658,3.373,2.06372,1.27539-6.93872,9.64731-18.982,17.653-9.64087,6.4083-14.556,10.743-29.563,26.071-20.669,21.111-22.66,24.175-22.259,34.248.25171,6.3169.35766,6.55133,3.759,8.3216,3.06122,1.5932,5.06549,1.74218,15.988,1.18841a159.66007,159.66007,0,0,0,17.5-1.689Zm-164.36-145.46c11.824-5.30648,22.333-19.996,28.218-39.443,2.7637-9.13339,9.3956-33.731,10.019-37.161.156-.8577-18.708-9.27289-31.865-14.215-13.579-5.10049-19.685-5.35641-39.327-1.64828-8.98,1.69531-16.679,3.2998-17.11,3.5657-1.41892.87693-2.06329,14.881-1.10141,23.934.64407,6.0615,1.77771,10.596,3.55911,14.237,3.03949,6.2125,12.621,16.193,19.321,20.125,4.0852,2.39762,5.7048,2.73471,13.159,2.73859,10.962.006,13.468-1.5076,24.189-14.607,4.45129-5.43882,8.4797-9.8888,8.952-9.8888,1.91822,0,.79978,9.1828-1.7254,14.166-5.59689,11.045-15.255,18.425-28.012,21.404-11.253,2.6279-17.85.79712-29.574-8.2081-8.48251-6.5155-11.616-9.994-14.948-16.594-4.9-9.72-6.88-19.34-6.88-33.43v-12.34H395.129c-1.56931,0-5.5246.2792-8.7894.62045l-5.9361.62045.705,5.62961c.38779,3.09619.743,9.9845.78943,15.307.17822,20.439,2.90729,30.308,12.14,43.904,9.15281,13.478,15.851,18.247,30.772,21.907,11.008,2.7002,12.727,2.88761,22.089,2.40631,6.22961-.32022,9.9223-1.1084,14.212-3.03329Zm161.81-314.11c23.12-26.726,25.34-35.821,12.3-50.33-6.47-7.198-9.05-8.27-19.74-8.206-12.17.073-19.51,2.558-32.28,10.935-5.62,3.687-10.22,6.997-10.22,7.355,0,.35838,5.11737,5.0038,11.372,10.323,12.184,10.362,22.703,21.012,29.084,29.445,2.17548,2.87551,4.27612,5.2281,4.668,5.2281s2.56128-2.1375,4.82092-4.75Zm-353.26-44.872c12.47-8.441,21.14-12.715,38.32-18.911,5.775-2.0822,10.68-3.9319,10.901-4.1103.22043-.17848-2.20221-3.7229-5.38361-7.8765-9.0151-11.77-17.854-15.716-35.585-15.887-9.3271-.0901-9.7848.0148-18.164,4.1636-16.777,8.3066-20.569,14.812-21.493,36.875-.52914,12.637.0587,16.134,3.71981,22.132l1.9918,3.26271,6.9381-5.8255c3.816-3.204,12.257-9.42431,18.757-13.823Z" transform="translate(-92.95823 -73.76412)"/><path id="a96f9070-eb59-4d97-a324-49e17d99a6ab" data-name="path2832" d="M372.55319,1056.82676c-5.87234-9.1604,20.20978-65.93626,23.42578-72.35326,6.0705-12.11,12.018-28.554,12.018-33.23,0-2.03711-1.28079-3.74487-5.25-7-7.427-6.09082-21.164-19.906-29.14-29.305-8.54818-10.074-14.851-20.258-26.612-43-5.11991-9.9-9.98362-18.788-10.808-19.75-1.3071-1.52551-3.468-1.75-16.844-1.75-14.581,0-15.345.09778-15.345,1.96253,0,4.96252-4.17789,12.93-9.27109,17.68-5.634,5.25482-11.535,12.436-24.945,30.357-4.73289,6.325-13.439,16.675-19.346,23-5.9075,6.325-13.449,14.875-16.759,19-9.7346,12.131-22.095,40.247-25.73,58.526a161.93371,161.93371,0,0,1-4.0336,16.221,38.94855,38.94855,0,0,0-1.9151,10.441,42.01333,42.01333,0,0,1-2.134,11.093c-1.70779,4.97638-2.0945,8.24609-1.93609,16.369.27023,13.86-.43627,16.856-5.0669,21.486-4.6963,4.69629-7.5381,4.903-11.863.863-1.76629-1.65-4.093-3-5.1703-3s-3.0948,1.35-4.48309,3c-1.43421,1.70453-3.5007,3-4.7854,3-2.5988,0-9.28611-4.56348-12.298-8.3924-2.8142-3.57757-4.1797-3.31708-8.4134,1.6051-3.3443,3.88819-3.88539,4.16089-6.45929,3.25568-7.6596-2.69372-17.70714-18.39955-19.34614-48.32759-4.85106-21.61856,5.5232-21.4968,5.002-31.1218s-.62963-17.09364-.3669-19.01863c2.0356-14.915,9.2529-49.116,13.452-63.748,4.0797-14.215,5.1578-19.546,5.41031-26.752.25341-7.23407,1.1063-11.428,4.3468-21.375l4.0315-12.375-1.521-7.1253c-4.273-20.017-5.4914-32.949-5.9944-63.625-.56069-34.191-.79994-37.169-2.92089-36.355-2.96431,1.13751-11.094-4.13141-19.484-12.628-9.7873-9.91162-16.226-20.14-22.68-36.027-5.5527-13.669-6.809-24.594-5.9786-51.99.66262-21.86,2.0241-31.193,7.09639-48.647,10.302-35.45,27.921-68.244,47.741-88.862l11.047-11.491h-5.0782c-4.2165,0-5.658.50906-8.495,3-2.2338,1.9613-4.4963,3-6.5348,3-3.0046,0-3.1173-.15454-3.0985-4.25.0339-7.38721,2.7873-25.031,4.8121-30.837,2.8145-8.07,4.4574-10.906,9.6898-16.725l4.66389-5.18729h-4.6751c-3.0352,0-7.1349,1.07959-11.688,3.078-10.935,4.79929-14.982,6.05011-19.641,6.0701-4.513.04-14.171-1.93-14.171-2.87,0-.30149,3.8025-4.49262,8.45-9.3136a157.87369,157.87369,0,0,0,15.816-20.102c4.0511-6.23511,11.321-16.962,16.156-23.837a207.45749,207.45749,0,0,0,12.058-19c7.81109-15.538,13.48-34.957,18.514-63.422a266.35952,266.35952,0,0,1,32.466-88.064,89.856,89.856,0,0,0,4.5401-8.2079,34.82662,34.82662,0,0,0-3.87-5.16739c-5.535-6.6346-12.732-18.054-14.992-23.79-4.8086-12.2-5.45841-45.56-1.1754-60.349,6.26759-21.643,19.272-36.164,42.538-47.501,15.762-7.6806,25.505-9.9054,43-9.8191,23.131.11419,44.129,5.6708,55.618,14.718,7.25448,5.713,20.162,22.843,25.053,33.25,2.10611,4.481,3.82931,8.6436,3.82931,9.25,0,1.4668-.39712,1.4997,19.829-1.6433,16.383-2.5458,19.785-2.7404,46.671-2.67,25.239.0661,30.751.3692,42.5,2.3373,24.462,4.0977,31.852,5.9367,41.074,10.222l8.967,4.1663,4.22931-3.0261c25.123-17.976,33.503-22.41,53.635-28.377,6.52368-1.9338,8.84558-2.1225,19.5-1.5848,21.858,1.1033,28.966,3.3323,44.279,13.886,7.82532,5.39341,12.824,11.952,18.134,23.793,4.535,10.113,5.50879,15.808,4.93872,28.884-.87616,20.094-4.4237,27.87-24.689,54.116-12.089,15.657-11.418,14.423-9.6717,17.8,3.219,6.22481,9.67029,26.88,11.557,37.003,2.35559,12.638,3.61731,24.553,5.05048,47.697,2.08032,33.594,3.16949,45.224,5.5672,59.449,3.19519,18.955,5.62371,27.373,11.504,39.877,6.83643,14.536,12.556,22.199,19.899,26.66,3.28851,1.99771,6.24371,4.06021,6.56708,4.58341.65417,1.0585-3.88831,5.2402-9.42511,8.6766-4.68158,2.90561-12.207,2.96952-19.892.169-6.41162-2.33621-15.154-4.884-16.821-4.902-.60273-.007-2.10193,3.45041-3.33142,7.6821a89.1142,89.1142,0,0,1-4.61493,12.389l-2.37928,4.6954,7.2107,6.3302c11.765,10.328,36.535,34.932,41.67,41.391,12.665,15.929,20.785,30.773,26.463,48.372,3.48059,10.789,3.60938,11.661,2.5105,17a114.402,114.402,0,0,1-10.312,27.461c-10.663,19.013-34.86,44.646-48.91,51.814-16.344,8.33807-38.8,15.075-50.25,15.075-12.164,0-21.993-6.0589-26.383-16.264-2.38922-5.55377-4.52917-22.477-3.65839-28.93.69544-5.1532,4.30329-12.593,9.18531-18.941,4.24438-5.519,17.691-17.773,26.824-24.445l6.92859-5.0618-8.1662-1.1668c-9.0954-1.2996-10.408-1.9896-20.567-10.809-10.046-8.72141-18.572-14.604-21.166-14.604-2.13849,0-2.24048.45133-2.88373,12.75-2.94922,56.392-10.637,84.245-38.713,140.25-8.97379,17.901-19.543,37.328-24.481,45-15.176,23.576-15.331,24.917-7.131,61.5,5.27911,23.552,10.711,51.002,16.423,83,2.01761,11.301,2.39112,15.93,1.938,24.013-.69858,12.459-2.945,24.524-6.30069,33.837-4.70788,13.066-19.358,43.985-26.549,56.033m-17.82715,10.7716c.61341-2.27807,6.04761-13.52,12.076-24.982,18.874-35.887,23.452-48.118,26.231-70.092,1.0567-8.35553.94513-11.007-1.04151-24.75-3.34619-23.148-8.93759-52.028-13.435-69.392-7.04639-27.207-7.83161-31.259-8.44651-43.588-.907-18.189.33231-22.194,13.507-43.643a602.62043,602.62043,0,0,0,33.993-65.269c20.3-45.709,21.384-49.74,27.143-101,4.87653-43.405,10.848-81.839,11.001-70.804.04651,3.35941,1.98071,27.269,2.58331,31.934.50824,3.9345.72485,4.15969,4.59521,4.77859,5.45252.87189,8.4007,2.5076,19.189,10.646,11.534,8.7015,14.774,10.27,27.274,13.205l10.111,2.3739,4.88861-3.959c6.66773-5.39981,14.343-8.7684,21.447-9.4126,4.83087-.438,5.94141-.261,5.94141.947,0,.81714-7.3125,6.9238-16.25,13.57-13.459,10.009-19.217,15.179-33.525,30.099-19.098,19.916-21.169,23.11-21.204,32.713-.02862,7.9386,3.31238,20.848,6.46528,24.982a13.19267,13.19267,0,0,0,12.766,4.888c5.389-1.15723,30.416-11.186,38.591-15.463,17.952-9.39361,40.288-33.902,51.035-55.997,4.50733-9.26709,4.62043-9.73291,4.611-19-.008-7.9776-.42884-10.498-2.62561-15.73-9.15412-21.8-30.373-48.279-58.599-73.128l-8.23383-7.24859-3.25049,3.70221a22.28431,22.28431,0,0,1-6.484,5.05319c-3.83581,1.60269-11.639,1.77389-14.365.31512-2.94519-1.5762-7.06262-10.516-7.0495-15.307.0138-5.0546-1.76617-14.674-2.70428-14.614-.37347.02381-2.85272,3.78241-5.50928,8.3526-6.40472,11.018-24.402,31.031-29.384,32.675-4.50647,1.48731-4.96381.95523-9.40558-10.943-3.04071-8.1452-3.22528-9.41062-3.30029-22.628-.04981-8.77381.34338-14.715,1.05322-15.916,1.04242-1.7633,1.35132-1.5697,3.8764,2.4303,4.2323,6.70441,5.198,9.7092,6.52521,20.304.67646,5.3999,1.54962,9.44989,1.94031,9,2.19739-2.53009,18.143-23.582,21.07-27.818,3.13519-4.53671,3.45538-5.64859,3.45538-12,0-6.8945.03772-6.99469,2.5-6.64551a18.9122,18.9122,0,0,1,10.282,5.50351c3.52991,4.2436,4.96411,8.1363,7.28369,19.77,2.44751,12.275,4.59888,17.18,7.30683,16.658,1.98651-.38257,13.652-20.577,15.762-27.286a68.07979,68.07979,0,0,0,2.0976-12.75c.28882-4.26251.66687-7.75.84009-7.75s6.52789,1.51612,14.122,3.3692c7.59363,1.853,16.014,3.6911,18.712,4.0846l4.9054.71539-5.20331-5.83459c-8.2602-9.26239-12.008-15.383-15.112-24.683-6.44013-19.29-7.88758-28.667-11.524-74.652-3.80841-48.16-3.84943-48.541-6.652-62-6.35028-30.495-16.506-57.216-28.678-75.454-9.88-14.796-31.04-34.236-53.15-48.831-20.25-13.367-33.52-18.789-65-26.558-29.851-7.3671-38.062-8.4733-58-7.8136-22.529.74544-42.23,3.0126-58.322,6.7119-7.05209,1.6211-13.191,2.9475-13.642,2.9475-.45077,0-1.07971-1.0125-1.39761-2.25-.852-3.3165-13.98-26.163-18.359-31.949-4.6734-6.1756-16.62-15.936-24.141-19.724-13.964-7.0329-36.769-8.6401-54.294-3.8265-12.543,3.4453-24.263,7.995-30.053,11.667-5.77851,3.6646-14.952,14.662-18.891,22.647-3.48379,7.0619-5.62981,18.691-6.539,35.436-.768,14.143.446,20.643,5.8838,31.5,3.23191,6.4528,11.619,20.509,13.379,22.424.21423.233,4.47521-1.7306,9.4688-4.36351l9.07919-4.7871-.72144,5.8635c-.39677,3.2249-1.13169,6.1282-1.6331,6.4516s-4.4806,4.0919-8.8426,8.37451c-18.102,17.772-32.282,52.562-41.997,103.04-4.576,23.774-9.8098,40.255-17.884,56.313-5.6931,11.323-9.9716,17.785-19.832,29.952-9.3542,11.543-20.772,28.565-19.455,29.005.46091.15363,7.5553-1.71869,15.765-4.16071,11.811-3.51321,24.509-6.60839,27.111-6.60839,1.0931,0-.58641,3.2676-7.7812,15.139-10.866,17.929-12.287,20.881-15.234,31.633-2.3639,8.62659-2.4111,9.2279-.72435,9.2279,5.2642,0,14.305-4.99389,23.591-13.03,4.9908-4.31961,8.62281-5.042,11.636-2.31479,3.856,3.48959.72491,12.787-6.9356,20.595l-4.6604,4.75,5.46241-.01669c4.55709-.01389,6.8712-.7724,13.962-4.5763,9.9043-5.3129,11.712-6.78149,13.441-10.921,1.671-3.99921,8.68969-7.45181,11.093-5.45691,2.5119,2.08469,4.09019,6.90882,4.80839,14.697.59745,6.47892,3.1064,14.277,4.592,14.272.31064-.001,1.9014-2.13849,3.535-4.75,5.70239-9.11609,22.565-24.766,24.409-22.654a32.83291,32.83291,0,0,1,2.6022,5.9058c2.7565,7.60708,7.4292,16.528,8.966,17.118,2.384.91482,7.4593-2.5159,9.4514-6.3887,2.5699-4.9964,7.56388-9.6496,9.5417-8.89069,2.0563.78906,2.05261,6.8204-.007,11.16-2.4166,5.0925-14.376,16.115-18.814,17.34-5.482,1.5137-7.9346.1796-10.459-5.6893a32.72223,32.72223,0,0,1-2.17-6.04c0-2.03741-2.35221-6.11169-3.5284-6.11169-.664,0-5.4198,4.75009-10.568,10.556-9.01731,10.168-14.727,15.444-16.714,15.444-1.8591,0-10.548-11.626-13.651-18.265l-3.1616-6.765-2.4384,2.62118c-7.7179,8.2966-16.369,10.915-31.614,9.56989l-8.1753-.7215-2.8247,3.52451c-7.99581,9.97668-21.448,28.435-25.679,35.236-5.4369,8.73889-13.889,27.727-18.606,41.8a187.78808,187.78808,0,0,0-9.5191,46c-3.5391,38.609-1.299,50.851,14.134,77.243,10.894,18.63,20.727,24.883,52.713,33.52,9.0833,2.45257,11.789,2.7334,26.133,2.7121,14.624-.02179,17.204-.31067,30-3.3595,17.038-4.05939,40.848-11.822,50.715-16.534,15.905-7.595,51.343-37.909,59.652-51.027,5.46851-8.63311,3.53189-17.715-6.6149-31.023-10.726-14.067-28.793-16.102-62.752-7.0672-18.696,4.97382-27.241,5.64039-44.525,3.47321-11.391-1.42828-15.589-3.83282-19.275-11.039-4.7267-9.24231-4.64881-22.776.23831-41.399,1.01041-3.85,2.1393-9.13211,2.5088-11.738,1.1561-8.15369,5.0862-9.48209,10.172-3.4383,3.04041,3.61331,2.9372,5.6366-1.0536,20.663-3.8821,14.617-4.15871,19.621-1.3794,24.955,3.4888,6.6962,6.5499,8.45578,15.496,8.90763,9.026.45581,17.67-.79712,37.818-5.48133,13.218-3.07321,16.604-3.48678,28.5-3.48221,21.412.008,28.945,2.76969,41.109,15.07,5.48361,5.54511,8.663,9.82739,11.384,15.333,3.59149,7.267,3.75159,8.0069,3.28961,15.206-.4032,6.2826-1.18069,8.96332-4.579,15.787-5.71631,11.478-12.862,19.566-29.805,33.736-25.441,21.277-36.271,27.991-55.525,34.42-26.259,8.76721-69.514,11.894-97.362,7.03747-4.54311-.79223-8.99161-1.72113-9.88561-2.06421-1.4776-.567-1.6246,2.00122-1.61639,28.233.006,18.309.52749,33.426,1.4273,41.357.78,6.875,1.7078,16.775,2.06171,22a102.34237,102.34237,0,0,0,10.15,36.851c2.35871,4.69983,4.1666,8.667,4.0176,8.8161-.8628.8628-11.212-9.69439-13.597-13.87l-2.8348-4.9635-1.11709,6.415a74.25465,74.25465,0,0,0-1.14,10.65c0,3.6662,2.6487,16.073,4.6447,21.756.35322,1.00568-1.6723-.40448-4.50121-3.13379-2.83-2.73-5.14-4.67-5.14-4.32,0,.35285-1.6074,7.9859-3.57209,16.962-4.8126,21.989-10.179,50.081-10.855,56.821-.30321,3.025-.21869,19.348.18783,36.274l.73911,30.774,4.2251,2.51751,4.2251,2.51752,1.1695-4.64441c.86691-3.44281,1.9729-5.138,4.2749-6.55231,4.5371-2.78747,5.9204-2.08007,7.08581,3.623,1.4046,6.874,1.9911,7.49011,7.13071,7.49011,4.0932,0,4.5861-.267,5.5388-3,.75918-2.17779,1.6855-3,3.3799-3,1.452,0,3.14129,1.13373,4.4703,3,2.5004,3.5116,3.8335,3.70539,7.21111,1.04859,2.23039-1.7544,2.54379-2.90979,3.10429-11.443.95453-14.531,4.07691-27.785,11.634-49.384,7.63151-21.811,12.572-34.024,16.422-40.593,3.24541-5.538,27.884-35.793,55.014-67.553,12.439-14.562,14.837-18.304,17.108-26.692l1.82739-6.75079L287.87,844.12957c-2.937-2.494-4.036-2.8324-7.91091-2.43561-6.184.63324-7,.13074-7-4.31073,0-2.96179.60478-4.31982,2.6349-5.91668a9.51742,9.51742,0,0,1,4.4514-2.07257c.99914,0,6.18831,2.30078,11.531,5.11279l9.71481,5.11279,12.084.50373c10.203.42535,12.962.2041,17.727-1.4217l5.64359-1.92541,2.10031,4.0589a87.004,87.004,0,0,0,6.85641,10.202c2.61591,3.3786,8.55069,13.148,13.189,21.711,4.63779,8.5622,10.573,18.398,13.189,21.857,7.13862,9.4389,19.629,22.867,27.389,29.444,20.016,16.966,21.364,19.033,19.64,30.119-1.6178,10.406-4.72559,19.035-16.028,44.501-5.45151,12.283-12.542,28.609-15.756,36.279l-5.84451,13.946m49.16607-511.028a133.03474,133.03474,0,0,1-25.485-9.35269c-12.79-6.54089-26.506-27.044-31.495-47.078-2.37008-9.518-3.5112-19.014-3.8587-32.111l-.31-11.62-10.11-5.14c-12.436-6.32639-22.41-15.001-24.978-21.724-1.1835-3.09891-1.76511-7.63361-1.8252-14.23-.0852-9.35379.039-9.91932,3.66269-16.682,7.3194-13.66,18.099-23.334,31.366-28.15,7.55591-2.7426,10.646-2.9426,12.422-.80384,2.15469,2.5963-1.603,6.3403-9.044,9.01081-7.38019,2.6488-12.194,7.192-20.501,19.35-4.6495,6.80481-4.9866,7.72351-5.3301,14.526-.31455,6.22879.008,8.05319,2.26559,12.826,5.22391,11.042,15.7,17.457,30.347,18.581,10.514.807,17.849.05331,38.224-3.9275,21.85-4.269,35.544-5.592,42.134-4.0708,2.86889.66224,12.45,4.07331,21.291,7.5803,8.84119,3.50689,20.179,7.8078,25.196,9.5574l9.12078,3.18121,8.87922-3.8081c7.21161-3.0929,10.11-5.033,15.432-10.33,8.85462-8.8128,11.324-14.252,10.722-23.62a34.66638,34.66638,0,0,0-3.48969-13.605c-3.249-6.943-5.2395-8.76141-14.91-13.621-6.66559-3.34961-8.12381-5.28491-5.7619-7.6468,1.9642-1.96421,6.61679-1.9417,13.455.0652,6.65039,1.9519,14.872,9.84189,18.469,17.724,5.1643,11.316,4.16528,29.093-2.30432,41.005-4.994,9.1947-23.195,21.122-35.09,22.995l-6.82571,1.0748-3.30442,12.554c-8.15091,30.966-13.563,44.096-22.96,55.7-6.2092,7.66779-19.064,17.457-26.737,20.361-7.5852,2.87039-19.549,3.46429-28.671,1.42318Zm30.725-13.743c8.82739-4.04129,18.484-15.326,24.228-28.315,2.18109-4.93179,12.719-41.7,13.547-47.264.32691-2.19861-.78451-2.87369-14.145-8.5917-29.917-12.804-32.995-13.259-57.81-8.55289l-17.052,3.23379-.69745,6.51279c-.8747,8.16791.20456,22.032,2.1427,27.525,3.98449,11.293,17.357,24.728,26.583,26.706,14.226,3.051,19.95.62082,31.661-13.442,4.58-5.5,8.74261-10.15,9.25-10.333.50744-.18334.92263,1.64081.92263,4.05359,0,9.96521-11.445,24.568-22.5,28.707-15.622,5.84961-23.242,4.84852-36.17-4.7518-12.212-9.06921-15.376-13.269-20.053-26.617-2.04971-5.85049-2.56579-9.6066-3.01559-21.947l-.54267-14.889-8.4866.59891a72.851,72.851,0,0,0-8.6806.88864c-.42093.62872,2.25711,39.537,2.97961,43.29,1.79212,9.30771,11.544,25.556,20.196,33.648,11.876,11.108,42.974,16.255,57.643,9.53931Zm-12.88-113.85c-5.6314-2.112-14.41-9.06119-17.942-14.204-5.774-8.4054-6.83692-21.324-2.1792-26.486,4.73379-5.2463,22.27-12.149,30.864-12.149,4.8613,0,18.273,5.14169,23.738,9.10091,14.423,10.448,8.02289,31.275-12.769,41.556-6.00891,2.9714-16.732,4.04879-21.711,2.18149Zm108.5-61.72c-11.013-3.6174-21.329-13.049-25.016-22.872-3.06939-8.1777-2.5545-19.568,1.23331-27.28a41.49906,41.49906,0,0,1,17.575-17.575c5.21582-2.64239,6.61078-2.8912,16.207-2.8912,9.48261,0,11.054.27206,16.218,2.80769,27.978,13.739,27.978,51.903-.00079,65.32-4.68738,2.24769-7.33741,2.7928-14.717,3.02679-4.95.157-10.125-.084-11.5-.53566Zm-218.66-25.92c-10.415-3.71421-19.973-13.71-22.971-24.024-2.05468-7.068-1.39331-17.901,1.4943-24.474,2.87079-6.53439,10.914-14.764,17.875-18.289,5.28439-2.67619,6.6438-2.9199,16.287-2.9199,9.849,0,10.943.20759,17.123,3.24989a37.72762,37.72762,0,0,1,17.674,18.075c2.19959,4.73069,2.6388,7.08979,2.6388,14.175,0,7.0854-.43915,9.4445-2.6388,14.175a37.7459,37.7459,0,0,1-17.594,18.035c-5.631,2.77209-7.763,3.25309-15.623,3.5243-6.92291.23893-10.338-.12674-14.266-1.52749Zm-95.39-125.34c-12.1-7.226-17.129-18.79-17.335-39.86-.11136-11.421,1.0854-16.404,6.6031-27.5,4.6263-9.303,9.30521-14.383,16.212-17.601,15.02-6.9994,46.283-7.7535,58.545-1.4123,5.06171,2.6175,10.716,8.2662,16.43,16.413,10.669,15.213,10.992,17.508,3.163,22.516-6.68509,4.2764-14.289,8.2148-35.566,18.421-16.363,7.8489-24.914,13.599-39.552,26.598l-5.052,4.4861-3.448-2.0591Zm3.7542-14.292c1.13-2.02,11.13-9.907,22.83-18.017,11.23-7.78,20.61-12.409,37.72-18.615,6.46-2.344,11.75-4.53,11.75-4.858,0-1.675-11.18-14.941-14.58-17.303-4.73-3.29-13.26-5.6251-23.54-6.4435-6.11929-.48755-8.9698-.19562-14.5,1.485-7.97079,2.4223-19.743,10.086-23.047,15.004-3.6741,5.4677-5.59489,16.578-5.19079,30.024.328,10.913.56335,12.119,3.1189,15.98,2.9389,4.4404,4.1474,5.0502,5.43809,2.74389Zm-78.87,887.52993c.75547-.47888,1.1875-2.09241,1-3.73468-.28241-2.47388-.81781-2.93811-3.7072-3.21429-4.3912-.4198-5.16859.59881-3.48989,4.57281,1.36819,3.239,3.52909,4.06763,6.1972,2.37622Zm21.009-1.67328c1.5466-3.39441,1.4673-4.45642-.49448-6.62421-1.9608-2.16662-7.1758-2.43341-7.9534-.40679-.92633,2.41387,3.6384,9.57812,6.10291,9.57812.65147,0,1.70669-1.14618,2.345-2.54712Zm-46.029-4.12561c-.32954-3.8996-2.38481-5.59979-3.4413-2.84668-.74871,1.95111,1.1221,6.51941,2.6699,6.51941.63569,0,.95382-1.51453.77143-3.67273Zm490.67-838.7c6.72809-8.0884,16.804-25.146,20.471-34.655,4.86132-12.606,3.91217-24.793-3.08368-39.6-7.61-16.105-17.29-23.004-39.35-28.039-12.41-2.834-32.06-.58-45.02,5.165-3.90527,1.731-23.329,15.342-27.837,19.506-.46027.42523,1.74231,1.9539,4.89471,3.3972a93.24954,93.24954,0,0,1,11.342,6.4537l5.61047,3.8297,7.49488-6.3844c7.85-6.684,20.35-13.481,28-15.223,6.58209-1.4991,17.717-1.29451,24.54.45087,16.482,4.2162,28.146,19.611,27.257,35.975-.496,9.12651-1.99127,12.04-15.094,29.406l-10.87,14.406,2.7221,6.4049c1.49719,3.5227,3.0185,6.0398,3.38068,5.5935s2.85663-3.4538,5.543-6.6835Zm-1.97-26.624c11.19-14.1,14.26-23.854,10.06-31.907-2.36-4.515-10.24-12.864-14.04-14.868-4.61-2.435-18.28-2.152-27.12.562-6.67,2.044-27.41,14.304-27.41,16.198,0,.41989,4.16247,4.2692,9.25,8.554,13.381,11.27,20.97,18.803,28.872,28.661l6.974,8.6995,3.33227-3.6995c1.83283-2.0347,6.368-7.5245,10.078-12.199Z" transform="translate(-92.95823 -73.76412)"/></g></g></g><g id="b7ad0c72-5563-4ca6-ac27-1123e9e0b3f8" data-name="CHAUSSURE DROITE"><path class="e94831a5-37a0-4117-84ae-262934aa7025" d="M553.40536,1110.51671c-33.71031-23.45065-68.88628-93.06977-73.28328-93.06977-12.45816,0-20.51932,4.76341-20.51932,4.76341L539.848,1138.73078c0,.36641,17.95441-25.28274,13.55741-28.21407" transform="translate(-92.95823 -73.76412)"/><path class="ad47b4ab-e39c-4220-aae6-5fe320731e66" d="M560.8941,1121.5092c-5.12983-4.397-19.78649-7.32833-23.81706-11.3589-15.3895-16.85515-47.63414-46.53489-75.11537-96.73394-9.89325-18.68723-55.6953,13.92383-55.6953,13.92383l79.87878,127.14651c.73283,0,93.8026-17.22158,74.74895-32.97748" transform="translate(-92.95823 -73.76412)"/><path class="a4417293-0e83-4bd6-be47-142361963a8f" d="M363.76206,1084.50115c-3.66416,0-2.93133,25.28274,0,29.31331,17.76345,22.12052,24.25991,30.78116,56.57613,55.34572a167.06586,167.06586,0,0,1,13.01527,10.7533C469.63209,1213.786,581.047,1195.594,581.047,1163.64709c0-27.11482-3.94665-23.8487-3.94665-23.8487-17.31617,9.05253-80.56854,20.551-108.04977,14.68831-60.45871-12.45817-101.25795-69.98556-105.28853-69.98556" transform="translate(-92.95823 -73.76412)"/><path class="bd4ca6a9-c7fa-46b5-ac13-0c2a78865efd" d="M577.66405,1139.48226c.21574-.1215.02-.48527-.11729-.69134a105.29776,105.29776,0,0,0-9.02313-11.70036,10.16524,10.16524,0,0,0-12.97181-1.59587c-14.94567,9.52652-34.47028,9.87472-53.58535,9.17484a10.04548,10.04548,0,0,1-9.66738-9.03474c-.43271-4.63787-1.407-8.74485-2.8562-10.72106-24.91632-35.90882-65.955-90.13843-82.07727-90.13843-16.85517,0-19.7865,22.71777-29.3133,22.71777q-.12092,0-.236-.00851a10.05242,10.05242,0,0,0-10.58413,8.1976,236.039,236.039,0,0,0-3.45764,28.56908.81456.81456,0,0,0,.11235.46642S448.06474,1212.468,577.66405,1139.48226Z" transform="translate(-92.95823 -73.76412)"/><ellipse class="f33940cb-4465-43d0-9ebe-84348bfd2a2f" cx="315.14022" cy="963.83573" rx="5.12983" ry="6.22908"/><ellipse class="f33940cb-4465-43d0-9ebe-84348bfd2a2f" cx="329.79687" cy="980.69088" rx="5.12983" ry="6.22908"/><ellipse class="f33940cb-4465-43d0-9ebe-84348bfd2a2f" cx="342.98787" cy="996.81321" rx="5.12983" ry="6.22908"/><ellipse class="f33940cb-4465-43d0-9ebe-84348bfd2a2f" cx="356.54528" cy="1016.96611" rx="5.12983" ry="6.22908"/><ellipse class="f33940cb-4465-43d0-9ebe-84348bfd2a2f" cx="369.36985" cy="1032.35561" rx="5.12983" ry="6.22908"/><ellipse class="f33940cb-4465-43d0-9ebe-84348bfd2a2f" cx="382.92726" cy="1050.31" rx="5.12983" ry="6.22908"/><path class="b7c61d8b-d6ad-457d-9b10-09509b2a8c27" d="M475.88549,1128.47112a3.95816,3.95816,0,0,1-2.56492-1.09925,4.96188,4.96188,0,0,1,0-6.22908c.73284-1.09924,20.51932-24.18348,57.89379-24.18348,1.83209,0,3.66417,1.83209,3.66417,4.397,0,2.1985-1.46567,4.397-3.66417,4.397-34.44313,0-52.764,21.61858-53.13038,21.61858a2.21559,2.21559,0,0,1-2.19849,1.09924" transform="translate(-92.95823 -73.76412)"/><path class="b7c61d8b-d6ad-457d-9b10-09509b2a8c27" d="M462.6945,1110.51671a3.167,3.167,0,0,1-2.1985-1.09925,4.97728,4.97728,0,0,1-.73283-5.86265c.73283-1.09925,16.12232-24.18349,59.35946-24.18349,1.83208,0,3.66416,1.83208,3.66416,4.397,0,2.1985-1.46567,4.397-3.66416,4.397-39.20657,0-53.49681,20.88574-53.86322,20.88574a3.08461,3.08461,0,0,1-2.56492,1.46567" transform="translate(-92.95823 -73.76412)"/><path class="b7c61d8b-d6ad-457d-9b10-09509b2a8c27" d="M449.86993,1095.12723a3.95816,3.95816,0,0,1-2.56492-1.09925c-1.46566-1.46567-1.46566-4.397-.36642-6.22908,17.588-23.45065,58.99305-23.81707,60.82513-23.81707s3.66417,1.83209,3.66417,4.397c0,2.1985-1.46568,4.397-3.66417,4.397-.36641,0-39.93939.36642-55.6953,20.88574a2.27868,2.27868,0,0,1-2.1985,1.46568" transform="translate(-92.95823 -73.76412)"/><path class="b7c61d8b-d6ad-457d-9b10-09509b2a8c27" d="M436.31252,1074.6079a3.7365,3.7365,0,0,1-2.93133-1.83208c-1.09925-1.83208-.73284-4.76341.73283-5.86266.73284-.73284,21.985-19.42008,61.558-19.42008,1.83208,0,3.66417,1.83208,3.66417,4.397s-1.46567,4.397-3.66417,4.397c-37.00806,0-57.161,17.588-57.161,17.9544a4.6474,4.6474,0,0,1-2.1985.36642" transform="translate(-92.95823 -73.76412)"/><path class="b7c61d8b-d6ad-457d-9b10-09509b2a8c27" d="M423.12152,1058.852a4.52338,4.52338,0,0,1-2.93132-1.46567,5.04413,5.04413,0,0,1,.73283-6.22908c.73284-.73283,20.88573-19.78648,64.12288-19.78648,1.83209,0,3.66417,1.83208,3.66417,4.397,0,2.1985-1.46567,4.397-3.66417,4.397-40.67222,0-59.35946,17.9544-59.72587,17.9544a5.208,5.208,0,0,1-2.1985.73284" transform="translate(-92.95823 -73.76412)"/><polygon class="b7c61d8b-d6ad-457d-9b10-09509b2a8c27" points="329.539 1057.924 361.675 1035.776 353.197 1028.738 321.881 1051.201 329.539 1057.924"/><polygon class="b7c61d8b-d6ad-457d-9b10-09509b2a8c27" points="313.741 1044.69 345.877 1022.542 337.399 1015.504 306.083 1037.967 313.741 1044.69"/><polygon class="b7c61d8b-d6ad-457d-9b10-09509b2a8c27" points="298.542 1032.195 330.678 1010.047 322.199 1003.009 290.884 1025.471 298.542 1032.195"/></g><g id="bdbddf8e-1587-4bc5-911b-fff1eda2cb20" data-name="CHAUSSURE GAUCHE"><path class="e94831a5-37a0-4117-84ae-262934aa7025" d="M298.80681,1076.06475c-33.71032-23.45065-68.88629-93.06977-73.28329-93.06977-12.45815,0-20.51932,4.76341-20.51932,4.76341l80.2452,116.52043c0,.36641,17.95441-25.28274,13.55741-28.21407" transform="translate(-92.95823 -73.76412)"/><path class="ad47b4ab-e39c-4220-aae6-5fe320731e66" d="M306.29555,1087.05724c-5.12984-4.397-19.78649-7.32833-23.81707-11.3589-15.38949-16.85515-47.63414-46.53489-75.11537-96.73394-9.89324-18.68723-55.69529,13.92383-55.69529,13.92383l79.87877,127.14651c.73284,0,93.8026-17.22158,74.749-32.97748" transform="translate(-92.95823 -73.76412)"/><path class="a4417293-0e83-4bd6-be47-142361963a8f" d="M109.16351,1050.04919c-3.66417,0-2.93133,25.28274,0,29.31331,17.76344,22.12052,24.2599,30.78116,56.57613,55.34572a167.06785,167.06785,0,0,1,13.01526,10.75329c36.27863,33.87256,147.69355,15.68055,147.69355-16.26638,0-27.11482-3.94664-23.8487-3.94664-23.8487-17.31618,9.05253-80.56854,20.551-108.04978,14.68831-60.45871-12.45817-101.25794-69.98556-105.28853-69.98556" transform="translate(-92.95823 -73.76412)"/><path class="bd4ca6a9-c7fa-46b5-ac13-0c2a78865efd" d="M323.06549,1105.0303c.21574-.1215.02-.48527-.11728-.69134a105.30033,105.30033,0,0,0-9.02313-11.70036,10.16524,10.16524,0,0,0-12.97181-1.59587c-14.94568,9.52652-34.47029,9.87472-53.58536,9.17484a10.04548,10.04548,0,0,1-9.66738-9.03474c-.43271-4.63787-1.407-8.74485-2.8562-10.72106-24.91632-35.90882-65.955-90.13843-82.07727-90.13843-16.85516,0-19.7865,22.71777-29.31329,22.71777q-.12092,0-.236-.00851a10.05241,10.05241,0,0,0-10.58413,8.1976,236.04,236.04,0,0,0-3.45765,28.56908.81457.81457,0,0,0,.11236.46642S193.46619,1178.016,323.06549,1105.0303Z" transform="translate(-92.95823 -73.76412)"/><ellipse class="f33940cb-4465-43d0-9ebe-84348bfd2a2f" cx="60.54166" cy="929.38377" rx="5.12983" ry="6.22908"/><ellipse class="f33940cb-4465-43d0-9ebe-84348bfd2a2f" cx="75.19832" cy="946.23892" rx="5.12983" ry="6.22908"/><ellipse class="f33940cb-4465-43d0-9ebe-84348bfd2a2f" cx="88.38931" cy="962.36125" rx="5.12983" ry="6.22908"/><ellipse class="f33940cb-4465-43d0-9ebe-84348bfd2a2f" cx="101.94672" cy="982.51415" rx="5.12983" ry="6.22908"/><ellipse class="f33940cb-4465-43d0-9ebe-84348bfd2a2f" cx="114.7713" cy="997.90365" rx="5.12983" ry="6.22908"/><ellipse class="f33940cb-4465-43d0-9ebe-84348bfd2a2f" cx="128.3287" cy="1015.85804" rx="5.12983" ry="6.22908"/><path class="b7c61d8b-d6ad-457d-9b10-09509b2a8c27" d="M221.28693,1094.01916a3.95814,3.95814,0,0,1-2.56491-1.09925,4.96185,4.96185,0,0,1,0-6.22908c.73283-1.09924,20.51931-24.18348,57.89379-24.18348,1.83208,0,3.66416,1.83209,3.66416,4.397,0,2.1985-1.46567,4.397-3.66416,4.397-34.44314,0-52.764,21.61858-53.13038,21.61858a2.2156,2.2156,0,0,1-2.1985,1.09924" transform="translate(-92.95823 -73.76412)"/><path class="b7c61d8b-d6ad-457d-9b10-09509b2a8c27" d="M208.09595,1076.06475a3.167,3.167,0,0,1-2.1985-1.09925,4.97728,4.97728,0,0,1-.73284-5.86265c.73284-1.09925,16.12232-24.18349,59.35946-24.18349,1.83208,0,3.66416,1.83208,3.66416,4.397,0,2.1985-1.46567,4.397-3.66416,4.397-39.20656,0-53.4968,20.88574-53.86322,20.88574a3.0846,3.0846,0,0,1-2.56492,1.46567" transform="translate(-92.95823 -73.76412)"/><path class="b7c61d8b-d6ad-457d-9b10-09509b2a8c27" d="M195.27137,1060.67527a3.95818,3.95818,0,0,1-2.56492-1.09925c-1.46566-1.46567-1.46566-4.397-.36641-6.22908,17.588-23.45065,58.993-23.81707,60.82513-23.81707s3.66416,1.83209,3.66416,4.397c0,2.1985-1.46567,4.397-3.66416,4.397-.36642,0-39.93939.36642-55.6953,20.88574a2.27869,2.27869,0,0,1-2.1985,1.46568" transform="translate(-92.95823 -73.76412)"/><path class="b7c61d8b-d6ad-457d-9b10-09509b2a8c27" d="M181.714,1040.15594a3.73651,3.73651,0,0,1-2.93133-1.83208c-1.09924-1.83208-.73283-4.76341.73284-5.86266.73283-.73284,21.985-19.42008,61.558-19.42008,1.83208,0,3.66416,1.83208,3.66416,4.397s-1.46567,4.397-3.66416,4.397c-37.00806,0-57.161,17.588-57.161,17.9544a4.64736,4.64736,0,0,1-2.1985.36642" transform="translate(-92.95823 -73.76412)"/><path class="b7c61d8b-d6ad-457d-9b10-09509b2a8c27" d="M168.523,1024.4a4.5234,4.5234,0,0,1-2.93133-1.46567,5.04412,5.04412,0,0,1,.73284-6.22908c.73283-.73283,20.88573-19.78648,64.12288-19.78648,1.83208,0,3.66416,1.83208,3.66416,4.397,0,2.1985-1.46567,4.397-3.66416,4.397-40.67223,0-59.35947,17.9544-59.72588,17.9544a5.20787,5.20787,0,0,1-2.1985.73284" transform="translate(-92.95823 -73.76412)"/><polygon class="b7c61d8b-d6ad-457d-9b10-09509b2a8c27" points="74.941 1023.472 107.077 1001.324 98.598 994.286 67.283 1016.749 74.941 1023.472"/><polygon class="b7c61d8b-d6ad-457d-9b10-09509b2a8c27" points="59.142 1010.238 91.278 988.09 82.8 981.052 51.484 1003.515 59.142 1010.238"/><polygon class="b7c61d8b-d6ad-457d-9b10-09509b2a8c27" points="43.943 997.743 76.079 975.595 67.601 968.557 36.285 991.019 43.943 997.743"/></g><g id="b873f59a-eda9-45aa-a55f-911a828ae20d" data-name="CHAUSSETTE"><path class="f38b16d5-ee15-46fe-a8b7-d0275a2dc5a8" d="M419.1095,954.16808s63.41209,3.63841,81.49172-4.64781l-1.17062,8.8366-1.68592,6.707L416.29787,966.766S418.67494,958.76474,419.1095,954.16808Z" transform="translate(-92.95823 -73.76412)"/><path class="a45313de-326d-48cd-9cee-a4bb43d04f76" d="M499.4306,958.35687c-15.93109,10.99518-82.55572,5.87543-82.55572,5.87543-32.35358,77.75708-33.86939,81.024-33.86939,81.024,2.12934-1.63074,8.64618-11.40851,8.64618-11.40851,6.72052-9.32623,14.61469-9.07245,14.61469-9.07245,36.88739-26.24854,51.58288-20.19714,57.16308-13.86133,0,0,1.2461,2.336,3.23737,5.84644l11.95447-1.82428C500.09363,977.31915,499.4306,958.35687,499.4306,958.35687Zm-74.31115,35.63068c-3.13666,0-5.67945-1.64057-5.67945-3.66419s2.54279-3.66418,5.67945-3.66418,5.67944,1.6405,5.67944,3.66418S428.2561,993.98755,425.11945,993.98755Zm47.10186,8.43194c-2.04034,0-3.69439-2.46276-3.69439-5.50067s1.654-5.50067,3.69439-5.50067,3.6944,2.46271,3.6944,5.50067S474.26166,1002.41949,472.22131,1002.41949Zm0-17.72241c-10.05865,0-18.21277-3.633-18.21277-8.1145s8.15412-8.1145,18.21277-8.1145,18.21277,3.633,18.21277,8.1145S482.28,984.69708,472.22131,984.69708Z" transform="translate(-92.95823 -73.76412)"/></g><g id="ed40d23f-edf9-4d65-9efa-1353cef099c8" data-name="SMART WATCH"><path class="af2cce06-f701-4347-86f4-8213effae522" d="M662.50678,651.708l9.58718,20.9969s-2.56368,4.35746-9.07627,7.61918l-12.31925-17.21157" transform="translate(-92.95823 -73.76412)"/><path class="af2cce06-f701-4347-86f4-8213effae522" d="M628.93775,619.067l-17.59388-7.858s-2.8631.80143-8.75853,6.84946l15.53382,11.45711" transform="translate(-92.95823 -73.76412)"/><path class="f12fb9c2-532a-4634-8d98-4f236f4e70c6" d="M632.84208,615.29616c2.28086-2.20286,6.297-1.758,8.95308.99208l22.87821,23.68831c2.65606,2.75012,2.96093,6.77931.68006,8.98218L647.608,666.0973c-2.28086,2.20287-6.29715,1.7579-8.95308-.99207l-22.87821-23.68832c-2.65606-2.75011-2.96093-6.77931-.68006-8.98217Z" transform="translate(-92.95823 -73.76412)"/><path class="e3be0df1-abc6-4b42-81b0-235c74c8fbcc" d="M635.082,617.61544c1.22013-1.17841,3.36859-.94031,4.78936.53077l22.87821,23.68831c1.42064,1.47094,1.584,3.62652.36386,4.80493L645.368,663.778c-1.22013,1.1784-3.36859.94031-4.78936-.53077l-22.87821-23.68832c-1.42077-1.47108-1.584-3.62652-.36386-4.80492Z" transform="translate(-92.95823 -73.76412)"/><ellipse class="b5526998-59ef-4199-9f4b-ec717973dab9" cx="640.22507" cy="640.69642" rx="4.88246" ry="5.88663" transform="translate(-358.33862 550.84481) rotate(-44.00337)"/><ellipse class="b9243b95-422a-45b2-bf88-42f4e9682610" cx="647.53731" cy="648.26759" rx="2.29797" ry="2.77059" transform="translate(-361.54576 558.04986) rotate(-44.00337)"/><ellipse class="a80c4e4a-c165-4259-823e-094a67bac091" cx="649.83582" cy="641.76176" rx="2.29797" ry="2.77059" transform="translate(-356.38096 557.82045) rotate(-44.00337)"/><ellipse class="e045e2fe-26d1-4a6e-9f53-e0aebefcb9c3" cx="646.5046" cy="634.63191" rx="2.29797" ry="2.77059" transform="translate(-352.36293 553.50489) rotate(-44.00337)"/><ellipse class="a8cdb687-e849-4874-9277-c52cc2f1b752" cx="639.49505" cy="631.0546" rx="2.29813" ry="2.77079" transform="translate(-351.84536 547.63151) rotate(-44.00339)"/><ellipse class="f992a612-1aa7-447b-8d0a-fa21f54ce279" cx="632.9131" cy="633.12554" rx="2.29797" ry="2.77059" transform="translate(-355.1316 543.64002) rotate(-44.00337)"/><ellipse class="b9243b95-422a-45b2-bf88-42f4e9682610" cx="630.61433" cy="639.63134" rx="2.29797" ry="2.77059" transform="translate(-360.29645 543.86925) rotate(-44.00337)"/><ellipse class="a8cdb687-e849-4874-9277-c52cc2f1b752" cx="633.94542" cy="646.76105" rx="2.29797" ry="2.77059" transform="translate(-364.31442 548.18467) rotate(-44.00337)"/><path class="b5b9ae42-5397-4cd0-ac42-f8f8326a941c" d="M638.42524,650.05851a3.18766,3.18766,0,0,0,2.72219,2.81812,2.0321,2.0321,0,0,0,2.3373-2.25792,3.18708,3.18708,0,0,0-2.72168-2.818A2.03263,2.03263,0,0,0,638.42524,650.05851Z" transform="translate(-92.95823 -73.76412)"/></g><g id="b455d804-2139-4972-b154-217e2477b2ac" data-name="BANDEAU"><path class="f38b16d5-ee15-46fe-a8b7-d0275a2dc5a8" d="M388.45313,188.43208c-105.34-.42126-160.494,37.49865-160.494,37.49865-14.01325,13.6632-21.69736,36.12677-21.69736,36.12677,48.2622-12.85986,92.88889-13.01357,151.31168-11.40859Z" transform="translate(-92.95823 -73.76412)"/><path class="b7c61d8b-d6ad-457d-9b10-09509b2a8c27" d="M612.926,233.79182c-102.69647-36.81434-161.7992-44.81477-224.47284-45.35969,0,0-24.24231,19.972-30.87964,62.2168,138.9685,4.14453,273.83282,34.38073,273.83282,34.38073C630.32648,265.53857,612.926,233.79182,612.926,233.79182Z" transform="translate(-92.95823 -73.76412)"/><path class="b7c61d8b-d6ad-457d-9b10-09509b2a8c27" d="M250.79049,214.03138c-2.3496,12.98179-.35637,39.42683-.35637,39.42683l6.24535-.74c-1.95075-17.12075.76408-41.47274.76408-41.47274Z" transform="translate(-92.95823 -73.76412)"/><path class="b7c61d8b-d6ad-457d-9b10-09509b2a8c27" d="M268.2842,207.154l-5.98862,2.184c-1.69511,15.08055.7539,42.73229.7539,42.73229l6.97409-.59354A242.808,242.808,0,0,1,268.2842,207.154Z" transform="translate(-92.95823 -73.76412)"/><path class="b7c61d8b-d6ad-457d-9b10-09509b2a8c27" d="M280.03149,203.32532l-7.13166,2.26785s.94624,31.57148,2.46187,45.42811l6.30053-.289S278.60992,217.71259,280.03149,203.32532Z" transform="translate(-92.95823 -73.76412)"/></g></svg>